<?xml version="1.0" encoding="UTF-8"?>
<svg id="Layer_1" data-name="Layer 1" xmlns="http://www.w3.org/2000/svg" viewBox="0 0 400 600">
  <defs>
    <style>
      .cls-1 {
        fill: #25265e;
      }

      .cls-1, .cls-2, .cls-3, .cls-4, .cls-5, .cls-6 {
        stroke-width: 0px;
      }

      .cls-7 {
        letter-spacing: .14em;
      }

      .cls-2, .cls-8, .cls-9, .cls-10, .cls-11 {
        fill: #231f20;
      }

      .cls-8 {
        font-size: 16.66px;
        letter-spacing: .06em;
      }

      .cls-8, .cls-9, .cls-12, .cls-10 {
        isolation: isolate;
      }

      .cls-8, .cls-9, .cls-10 {
        font-family: MSReferenceSansSerif, 'MS Reference Sans Serif';
      }

      .cls-9 {
        letter-spacing: .05em;
      }

      .cls-9, .cls-10 {
        font-size: 13.2px;
      }

      .cls-3 {
        fill: #f9d642;
      }

      .cls-4 {
        fill: #be202e;
      }

      .cls-10 {
        letter-spacing: .06em;
      }

      .cls-11 {
        font-family: TrebuchetMS, 'Trebuchet MS';
        font-size: 10px;
      }

      .cls-5 {
        fill: #2e3690;
      }

      .cls-6 {
        fill: #e8c92f;
      }

      .cls-13 {
        letter-spacing: .14em;
      }
    </style>
  </defs>
  <polygon class="cls-6" points="398.5 601.06 0 602.06 0 0 398.5 -1 398.5 601.06"/>
  <path class="cls-1" d="M409.42,413.8L-139.44,695.33v-287.62l466.06-231.85v-2.37L-139.44-58.35v-186.62L409.42,36.56v377.24Z"/>
  <g>
    <path class="cls-3" d="M3.85,350.94c0-2.94,1.9-4.73,4.61-4.73s4.61,1.79,4.61,4.73-1.9,4.8-4.61,4.8-4.61-1.85-4.61-4.8ZM11.64,350.94c0-2.29-1.27-3.7-3.19-3.7s-3.19,1.41-3.19,3.7,1.27,3.77,3.19,3.77,3.19-1.48,3.19-3.77Z"/>
    <path class="cls-3" d="M15.14,353.08v-4.31h1.35v4.17c0,1.27.45,1.81,1.51,1.81.82,0,1.38-.35,2.14-1.15v-4.83h1.35v6.81h-1.12l-.11-1.07h-.04c-.74.74-1.54,1.23-2.63,1.23-1.68,0-2.44-.93-2.44-2.66Z"/>
    <path class="cls-3" d="M24.17,348.77h1.12l.11,1.24h.04c.56-.86,1.37-1.41,2.27-1.41.35,0,.6.04.85.14l-.25,1.01c-.27-.07-.45-.11-.77-.11-.67,0-1.48.42-2.02,1.57v4.37h-1.35v-6.81Z"/>
    <path class="cls-3" d="M33.39,353.47v-3.76h-1.19v-.87l1.25-.07.16-1.91h1.13v1.91h2.16v.94h-2.16v3.79c0,.83.31,1.31,1.23,1.31.28,0,.65-.09.91-.18l.26.87c-.45.13-.98.25-1.48.25-1.7,0-2.27-.92-2.27-2.27Z"/>
    <path class="cls-3" d="M38.11,352.18c0-2.22,1.75-3.58,3.59-3.58,2.04,0,3.19,1.25,3.19,3.2,0,.24-.02.49-.06.65h-5.37c.1,1.44,1.13,2.38,2.65,2.38.77,0,1.4-.21,1.99-.54l.48.76c-.7.39-1.55.71-2.64.71-2.13,0-3.82-1.33-3.82-3.56ZM43.69,351.62c0-1.36-.72-2.11-1.97-2.11-1.12,0-2.12.77-2.29,2.11h4.26Z"/>
    <path class="cls-3" d="M46.35,353.81c0-1.48,1.5-2.23,4.9-2.54,0-.88-.34-1.72-1.65-1.72-.92,0-1.75.37-2.38.73l-.53-.79c.73-.41,1.85-.89,3.13-.89,1.95,0,2.77,1.1,2.77,2.8v4.18h-1.12l-.11-.81h-.04c-.76.54-1.65.98-2.64.98-1.34,0-2.34-.71-2.34-1.94ZM51.25,353.91v-1.89c-2.67.27-3.58.83-3.58,1.7,0,.77.62,1.09,1.4,1.09s1.41-.32,2.18-.9Z"/>
    <path class="cls-3" d="M55.11,348.77h1.12l.11.99h.04c.7-.64,1.53-1.16,2.48-1.16,1.22,0,1.87.5,2.2,1.3.83-.77,1.66-1.3,2.63-1.3,1.64,0,2.43.93,2.43,2.66v4.31h-1.35v-4.17c0-1.27-.47-1.81-1.49-1.81-.62,0-1.26.34-2,1.05v4.93h-1.35v-4.17c0-1.27-.47-1.81-1.48-1.81-.6,0-1.26.34-2,1.05v4.93h-1.35v-6.81Z"/>
    <path class="cls-3" d="M71.41,352.18c0-2.27,1.8-3.58,3.84-3.58,1.05,0,1.77.37,2.33.8l-.69.76c-.46-.36-.96-.6-1.58-.6-1.44,0-2.5,1.06-2.5,2.62s1,2.6,2.47,2.6c.73,0,1.38-.3,1.87-.68l.59.77c-.72.54-1.62.87-2.58.87-2.12,0-3.74-1.31-3.74-3.56Z"/>
    <path class="cls-3" d="M78.9,352.18c0-2.27,1.74-3.58,3.7-3.58s3.7,1.31,3.7,3.58-1.74,3.56-3.7,3.56-3.7-1.31-3.7-3.56ZM84.9,352.18c0-1.56-.93-2.62-2.3-2.62s-2.3,1.06-2.3,2.62.93,2.6,2.3,2.6,2.3-1.04,2.3-2.6Z"/>
    <path class="cls-3" d="M88.38,348.77h1.12l.11.98h.04c.76-.64,1.58-1.15,2.68-1.15,1.68,0,2.44.93,2.44,2.66v4.31h-1.35v-4.17c0-1.27-.45-1.81-1.51-1.81-.82,0-1.38.36-2.18,1.05v4.93h-1.35v-6.81Z"/>
    <path class="cls-3" d="M96.48,354.8l.67-.76c.69.48,1.4.81,2.36.81,1.05,0,1.57-.48,1.57-1.06,0-.7-.94-1.01-1.83-1.29-1.12-.35-2.38-.82-2.38-1.97s1.02-1.93,2.75-1.93c.99,0,1.86.35,2.48.77l-.65.74c-.55-.35-1.11-.61-1.82-.61-1.01,0-1.47.46-1.47.98,0,.65.87.89,1.77,1.18,1.15.37,2.43.77,2.43,2.07,0,1.1-1.03,2.02-2.91,2.02-1.13,0-2.23-.41-2.98-.95Z"/>
    <path class="cls-3" d="M103.99,346.62c0-.45.41-.74.93-.74s.93.29.93.74-.41.74-.93.74-.93-.31-.93-.74ZM104.24,348.77h1.35v6.81h-1.35v-6.81Z"/>
    <path class="cls-3" d="M107.39,354.8l.67-.76c.69.48,1.4.81,2.36.81,1.05,0,1.57-.48,1.57-1.06,0-.7-.94-1.01-1.83-1.29-1.12-.35-2.38-.82-2.38-1.97s1.02-1.93,2.75-1.93c.99,0,1.86.35,2.48.77l-.65.74c-.55-.35-1.11-.61-1.82-.61-1.01,0-1.47.46-1.47.98,0,.65.87.89,1.77,1.18,1.15.37,2.43.77,2.43,2.07,0,1.1-1.03,2.02-2.91,2.02-1.13,0-2.23-.41-2.98-.95Z"/>
    <path class="cls-3" d="M115.39,353.47v-3.76h-1.19v-.87l1.25-.07.16-1.91h1.13v1.91h2.16v.94h-2.16v3.79c0,.83.31,1.31,1.23,1.31.28,0,.65-.09.91-.18l.26.87c-.45.13-.98.25-1.48.25-1.7,0-2.27-.92-2.27-2.27Z"/>
    <path class="cls-3" d="M119.82,354.8l.67-.76c.69.48,1.4.81,2.36.81,1.05,0,1.57-.48,1.57-1.06,0-.7-.94-1.01-1.83-1.29-1.12-.35-2.38-.82-2.38-1.97s1.02-1.93,2.75-1.93c.99,0,1.86.35,2.48.77l-.65.74c-.55-.35-1.11-.61-1.82-.61-1.01,0-1.47.46-1.47.98,0,.65.87.89,1.77,1.18,1.15.37,2.43.77,2.43,2.07,0,1.1-1.03,2.02-2.91,2.02-1.13,0-2.23-.41-2.98-.95Z"/>
    <path class="cls-3" d="M130.27,352.18c0-2.27,1.74-3.58,3.7-3.58s3.7,1.31,3.7,3.58-1.74,3.56-3.7,3.56-3.7-1.31-3.7-3.56ZM136.27,352.18c0-1.56-.93-2.62-2.3-2.62s-2.3,1.06-2.3,2.62.93,2.6,2.3,2.6,2.3-1.04,2.3-2.6Z"/>
    <path class="cls-3" d="M138.9,348.83l1.14-.07h2.98v.94h-4.12v-.87ZM139.98,347.69c0-1.38.74-2.26,2.34-2.26.49,0,.96.1,1.33.23l-.29.88c-.3-.12-.62-.18-.9-.18-.75,0-1.12.45-1.12,1.33v7.88h-1.35v-7.88Z"/>
    <path class="cls-3" d="M147.24,352.18c0-2.22,1.75-3.58,3.59-3.58,2.04,0,3.19,1.25,3.19,3.2,0,.24-.02.49-.06.65h-5.37c.1,1.44,1.13,2.38,2.65,2.38.77,0,1.4-.21,1.99-.54l.48.76c-.7.39-1.55.71-2.64.71-2.13,0-3.82-1.33-3.82-3.56ZM152.82,351.62c0-1.36-.72-2.11-1.97-2.11-1.12,0-2.12.77-2.29,2.11h4.26Z"/>
    <path class="cls-3" d="M157.47,352.02l-2.41-3.25h1.46l1.07,1.49c.24.38.52.76.78,1.13h.07c.24-.37.48-.76.72-1.13l.98-1.49h1.41l-2.41,3.38,2.61,3.43h-1.46l-1.18-1.58c-.28-.41-.57-.83-.87-1.22h-.07c-.27.39-.53.81-.81,1.22l-1.08,1.58h-1.41l2.61-3.55Z"/>
    <path class="cls-3" d="M163.3,348.77h1.12l.11.79h.04c.72-.51,1.62-.95,2.54-.95,2.06,0,3.16,1.37,3.16,3.47,0,2.32-1.63,3.68-3.46,3.68-.73,0-1.48-.29-2.21-.79l.04,1.19v2.31h-1.35v-9.68ZM168.88,352.08c0-1.5-.6-2.51-2.1-2.51-.68,0-1.36.32-2.13.93v3.57c.72.52,1.42.71,1.94.71,1.32,0,2.29-1.01,2.29-2.7Z"/>
    <path class="cls-3" d="M171.81,352.18c0-2.22,1.75-3.58,3.59-3.58,2.04,0,3.19,1.25,3.19,3.2,0,.24-.02.49-.06.65h-5.37c.1,1.44,1.13,2.38,2.65,2.38.77,0,1.4-.21,1.99-.54l.48.76c-.7.39-1.55.71-2.64.71-2.13,0-3.82-1.33-3.82-3.56ZM177.39,351.62c0-1.36-.72-2.11-1.97-2.11-1.12,0-2.12.77-2.29,2.11h4.26Z"/>
    <path class="cls-3" d="M180.55,348.77h1.12l.11,1.24h.04c.56-.86,1.37-1.41,2.27-1.41.35,0,.6.04.85.14l-.25,1.01c-.27-.07-.45-.11-.77-.11-.67,0-1.48.42-2.02,1.57v4.37h-1.35v-6.81Z"/>
    <path class="cls-3" d="M185.99,346.62c0-.45.41-.74.93-.74s.93.29.93.74-.41.74-.93.74-.93-.31-.93-.74ZM186.24,348.77h1.35v6.81h-1.35v-6.81Z"/>
    <path class="cls-3" d="M189.69,352.18c0-2.22,1.75-3.58,3.59-3.58,2.04,0,3.18,1.25,3.18,3.2,0,.24-.02.49-.06.65h-5.37c.1,1.44,1.13,2.38,2.65,2.38.77,0,1.39-.21,1.99-.54l.48.76c-.7.39-1.55.71-2.63.71-2.13,0-3.82-1.33-3.82-3.56ZM195.26,351.62c0-1.36-.72-2.11-1.97-2.11-1.12,0-2.12.77-2.29,2.11h4.26Z"/>
    <path class="cls-3" d="M198.42,348.77h1.12l.11.98h.04c.76-.64,1.58-1.15,2.68-1.15,1.68,0,2.44.93,2.44,2.66v4.31h-1.35v-4.17c0-1.27-.45-1.81-1.51-1.81-.82,0-1.38.36-2.18,1.05v4.93h-1.35v-6.81Z"/>
    <path class="cls-3" d="M206.81,352.18c0-2.27,1.8-3.58,3.84-3.58,1.05,0,1.77.37,2.33.8l-.69.76c-.46-.36-.96-.6-1.58-.6-1.45,0-2.5,1.06-2.5,2.62s1,2.6,2.47,2.6c.73,0,1.38-.3,1.87-.68l.59.77c-.72.54-1.62.87-2.58.87-2.12,0-3.74-1.31-3.74-3.56Z"/>
    <path class="cls-3" d="M214.29,352.18c0-2.22,1.75-3.58,3.59-3.58,2.04,0,3.19,1.25,3.19,3.2,0,.24-.02.49-.06.65h-5.37c.1,1.44,1.13,2.38,2.65,2.38.77,0,1.4-.21,1.99-.54l.48.76c-.7.39-1.55.71-2.64.71-2.13,0-3.82-1.33-3.82-3.56ZM219.87,351.62c0-1.36-.72-2.11-1.97-2.11-1.12,0-2.12.77-2.29,2.11h4.26Z"/>
    <path class="cls-3" d="M222.46,352.18c0-2.21,1.63-3.58,3.45-3.58.93,0,1.54.3,2.24.79l-.06-1.17v-2.62h1.35v9.98h-1.12l-.11-.8h-.04c-.62.53-1.47.97-2.42.97-1.99,0-3.29-1.29-3.29-3.56ZM228.09,353.84v-3.57c-.68-.52-1.29-.71-1.95-.71-1.28,0-2.29,1.05-2.29,2.6,0,1.63.79,2.6,2.19,2.6.74,0,1.38-.31,2.05-.93Z"/>
    <path class="cls-3" d="M234.82,352.18c0-2.27,1.8-3.58,3.84-3.58,1.05,0,1.77.37,2.33.8l-.69.76c-.46-.36-.96-.6-1.58-.6-1.45,0-2.5,1.06-2.5,2.62s1,2.6,2.47,2.6c.73,0,1.38-.3,1.87-.68l.59.77c-.72.54-1.62.87-2.58.87-2.12,0-3.74-1.31-3.74-3.56Z"/>
    <path class="cls-3" d="M242.9,348.77h1.12l.11,1.24h.04c.56-.86,1.37-1.41,2.27-1.41.35,0,.6.04.85.14l-.25,1.01c-.28-.07-.46-.11-.77-.11-.67,0-1.48.42-2.02,1.57v4.37h-1.35v-6.81Z"/>
    <path class="cls-3" d="M248,352.18c0-2.22,1.75-3.58,3.59-3.58,2.04,0,3.18,1.25,3.18,3.2,0,.24-.02.49-.06.65h-5.37c.1,1.44,1.13,2.38,2.65,2.38.77,0,1.39-.21,1.99-.54l.48.76c-.7.39-1.55.71-2.64.71-2.13,0-3.82-1.33-3.82-3.56ZM253.58,351.62c0-1.36-.72-2.11-1.97-2.11-1.12,0-2.12.77-2.29,2.11h4.26Z"/>
    <path class="cls-3" d="M256.24,353.81c0-1.48,1.5-2.23,4.9-2.54,0-.88-.34-1.72-1.65-1.72-.92,0-1.75.37-2.38.73l-.53-.79c.73-.41,1.85-.89,3.13-.89,1.95,0,2.77,1.1,2.77,2.8v4.18h-1.12l-.11-.81h-.04c-.76.54-1.65.98-2.64.98-1.34,0-2.34-.71-2.34-1.94ZM261.14,353.91v-1.89c-2.67.27-3.58.83-3.58,1.7,0,.77.62,1.09,1.4,1.09s1.41-.32,2.18-.9Z"/>
    <path class="cls-3" d="M265.25,353.47v-3.76h-1.19v-.87l1.25-.07.16-1.91h1.13v1.91h2.16v.94h-2.16v3.79c0,.83.31,1.31,1.23,1.31.28,0,.65-.09.91-.18l.26.87c-.45.13-.98.25-1.48.25-1.7,0-2.27-.92-2.27-2.27Z"/>
    <path class="cls-3" d="M270.31,346.62c0-.45.41-.74.93-.74s.93.29.93.74-.41.74-.93.74-.93-.31-.93-.74ZM270.56,348.77h1.35v6.81h-1.35v-6.81Z"/>
    <path class="cls-3" d="M273.45,348.77h1.39l1.51,3.87c.24.67.5,1.36.74,2.01h.07c.24-.65.5-1.34.74-2.01l1.51-3.87h1.32l-2.82,6.81h-1.57l-2.88-6.81Z"/>
    <path class="cls-3" d="M281.67,352.18c0-2.22,1.75-3.58,3.59-3.58,2.04,0,3.18,1.25,3.18,3.2,0,.24-.02.49-.06.65h-5.37c.1,1.44,1.13,2.38,2.65,2.38.77,0,1.39-.21,1.99-.54l.48.76c-.7.39-1.55.71-2.64.71-2.13,0-3.82-1.33-3.82-3.56ZM287.25,351.62c0-1.36-.72-2.11-1.97-2.11-1.12,0-2.12.77-2.29,2.11h4.26Z"/>
    <path class="cls-3" d="M293.09,352.18c0-2.27,1.8-3.58,3.84-3.58,1.05,0,1.77.37,2.33.8l-.69.76c-.46-.36-.96-.6-1.58-.6-1.45,0-2.5,1.06-2.5,2.62s1,2.6,2.47,2.6c.73,0,1.38-.3,1.87-.68l.59.77c-.72.54-1.62.87-2.58.87-2.12,0-3.74-1.31-3.74-3.56Z"/>
    <path class="cls-3" d="M300.58,352.18c0-2.27,1.74-3.58,3.7-3.58s3.7,1.31,3.7,3.58-1.74,3.56-3.7,3.56-3.7-1.31-3.7-3.56ZM306.58,352.18c0-1.56-.93-2.62-2.3-2.62s-2.3,1.06-2.3,2.62.93,2.6,2.3,2.6,2.3-1.04,2.3-2.6Z"/>
    <path class="cls-3" d="M309.5,352.18c0-2.21,1.63-3.58,3.45-3.58.93,0,1.54.3,2.24.79l-.06-1.17v-2.62h1.35v9.98h-1.12l-.11-.8h-.04c-.62.53-1.47.97-2.42.97-1.99,0-3.29-1.29-3.29-3.56ZM315.13,353.84v-3.57c-.68-.52-1.29-.71-1.95-.71-1.28,0-2.29,1.05-2.29,2.6,0,1.63.79,2.6,2.19,2.6.74,0,1.38-.31,2.05-.93Z"/>
    <path class="cls-3" d="M318.58,352.18c0-2.22,1.75-3.58,3.59-3.58,2.04,0,3.18,1.25,3.18,3.2,0,.24-.02.49-.06.65h-5.37c.1,1.44,1.13,2.38,2.65,2.38.77,0,1.39-.21,1.99-.54l.48.76c-.7.39-1.55.71-2.64.71-2.13,0-3.82-1.33-3.82-3.56ZM324.16,351.62c0-1.36-.72-2.11-1.97-2.11-1.12,0-2.12.77-2.29,2.11h4.26Z"/>
    <path class="cls-3" d="M327.32,348.77h1.12l.11,1.24h.04c.56-.86,1.37-1.41,2.27-1.41.35,0,.6.04.85.14l-.25,1.01c-.28-.07-.46-.11-.77-.11-.67,0-1.48.42-2.02,1.57v4.37h-1.35v-6.81Z"/>
    <path class="cls-3" d="M332.13,354.8l.67-.76c.69.48,1.4.81,2.36.81,1.05,0,1.57-.48,1.57-1.06,0-.7-.94-1.01-1.83-1.29-1.12-.35-2.38-.82-2.38-1.97s1.02-1.93,2.75-1.93c.99,0,1.86.35,2.48.77l-.65.74c-.55-.35-1.11-.61-1.82-.61-1,0-1.47.46-1.47.98,0,.65.87.89,1.77,1.18,1.15.37,2.43.77,2.43,2.07,0,1.1-1.03,2.02-2.91,2.02-1.13,0-2.23-.41-2.98-.95Z"/>
    <path class="cls-3" d="M342.22,348.77h1.38l1.18,3.93c.17.65.32,1.26.47,1.9h.07c.17-.64.35-1.26.54-1.9l1.23-3.93h1.32l1.24,3.93c.2.65.37,1.26.56,1.9h.07c.17-.64.32-1.25.49-1.9l1.16-3.93h1.29l-2.14,6.81h-1.64l-1.15-3.66c-.19-.64-.35-1.27-.54-1.96h-.07c-.17.69-.33,1.34-.55,1.98l-1.12,3.64h-1.58l-2.22-6.81Z"/>
    <path class="cls-3" d="M354.71,346.62c0-.45.41-.74.93-.74s.93.29.93.74-.41.74-.93.74-.93-.31-.93-.74ZM354.96,348.77h1.35v6.81h-1.35v-6.81Z"/>
    <path class="cls-3" d="M359.23,353.47v-3.76h-1.19v-.87l1.25-.07.16-1.91h1.13v1.91h2.16v.94h-2.16v3.79c0,.83.31,1.31,1.23,1.31.28,0,.65-.09.91-.18l.26.87c-.45.13-.98.25-1.48.25-1.7,0-2.27-.92-2.27-2.27Z"/>
    <path class="cls-3" d="M364.54,345.6h1.35v2.73l-.05,1.4c.75-.62,1.55-1.13,2.65-1.13,1.68,0,2.44.93,2.44,2.66v4.31h-1.35v-4.17c0-1.27-.45-1.81-1.51-1.81-.82,0-1.38.36-2.18,1.05v4.93h-1.35v-9.98Z"/>
    <path class="cls-3" d="M3.75,367.18c0-2.27,1.74-3.58,3.7-3.58s3.7,1.31,3.7,3.58-1.74,3.56-3.7,3.56-3.7-1.31-3.7-3.56ZM9.75,367.18c0-1.56-.93-2.62-2.3-2.62s-2.3,1.06-2.3,2.62.93,2.6,2.3,2.6,2.3-1.04,2.3-2.6Z"/>
    <path class="cls-3" d="M12.09,363.77h1.39l1.51,3.87c.24.67.5,1.36.74,2.01h.07c.24-.65.5-1.34.74-2.01l1.51-3.87h1.32l-2.82,6.81h-1.57l-2.88-6.81Z"/>
    <path class="cls-3" d="M20.31,367.18c0-2.22,1.75-3.58,3.59-3.58,2.04,0,3.19,1.25,3.19,3.2,0,.24-.02.49-.06.65h-5.37c.1,1.44,1.13,2.38,2.65,2.38.77,0,1.4-.21,1.99-.54l.48.76c-.7.39-1.55.71-2.64.71-2.13,0-3.82-1.33-3.82-3.56ZM25.89,366.62c0-1.36-.72-2.11-1.97-2.11-1.12,0-2.12.77-2.29,2.11h4.26Z"/>
    <path class="cls-3" d="M29.05,363.77h1.12l.11,1.24h.04c.56-.86,1.37-1.41,2.27-1.41.35,0,.6.04.85.14l-.25,1.01c-.27-.07-.45-.11-.77-.11-.67,0-1.48.42-2.02,1.57v4.37h-1.35v-6.81Z"/>
    <path class="cls-3" d="M37.53,368.81c0-1.48,1.5-2.23,4.9-2.54,0-.88-.34-1.72-1.65-1.72-.92,0-1.75.37-2.38.73l-.53-.79c.73-.41,1.85-.89,3.13-.89,1.95,0,2.77,1.1,2.77,2.8v4.18h-1.12l-.11-.81h-.04c-.76.54-1.65.98-2.64.98-1.34,0-2.34-.71-2.34-1.94ZM42.43,368.91v-1.89c-2.67.27-3.58.83-3.58,1.7,0,.77.62,1.09,1.4,1.09s1.41-.32,2.18-.9Z"/>
    <path class="cls-3" d="M49.01,367.18c0-2.21,1.63-3.58,3.45-3.58.93,0,1.54.3,2.24.79l-.06-1.17v-2.62h1.35v9.98h-1.12l-.11-.8h-.04c-.62.53-1.47.97-2.42.97-1.99,0-3.29-1.29-3.29-3.56ZM54.65,368.84v-3.57c-.68-.52-1.29-.71-1.95-.71-1.28,0-2.29,1.05-2.29,2.6,0,1.63.79,2.6,2.19,2.6.74,0,1.38-.31,2.05-.93Z"/>
    <path class="cls-3" d="M58.1,367.18c0-2.22,1.75-3.58,3.59-3.58,2.04,0,3.19,1.25,3.19,3.2,0,.24-.02.49-.06.65h-5.37c.1,1.44,1.13,2.38,2.65,2.38.77,0,1.4-.21,1.99-.54l.48.76c-.7.39-1.55.71-2.64.71-2.13,0-3.82-1.33-3.82-3.56ZM63.68,366.62c0-1.36-.72-2.11-1.97-2.11-1.12,0-2.12.77-2.29,2.11h4.26Z"/>
    <path class="cls-3" d="M66.24,367.18c0-2.27,1.8-3.58,3.84-3.58,1.05,0,1.77.37,2.33.8l-.69.76c-.46-.36-.96-.6-1.58-.6-1.44,0-2.5,1.06-2.5,2.62s1,2.6,2.47,2.6c.73,0,1.38-.3,1.87-.68l.59.77c-.72.54-1.62.87-2.58.87-2.12,0-3.74-1.31-3.74-3.56Z"/>
    <path class="cls-3" d="M73.82,368.81c0-1.48,1.5-2.23,4.9-2.54,0-.88-.34-1.72-1.65-1.72-.92,0-1.75.37-2.38.73l-.53-.79c.73-.41,1.85-.89,3.13-.89,1.95,0,2.77,1.1,2.77,2.8v4.18h-1.12l-.11-.81h-.04c-.76.54-1.65.98-2.64.98-1.34,0-2.34-.71-2.34-1.94ZM78.72,368.91v-1.89c-2.67.27-3.58.83-3.58,1.7,0,.77.62,1.09,1.4,1.09s1.41-.32,2.18-.9Z"/>
    <path class="cls-3" d="M82.02,367.18c0-2.21,1.63-3.58,3.45-3.58.93,0,1.54.3,2.24.79l-.06-1.17v-2.62h1.35v9.98h-1.12l-.11-.8h-.04c-.62.53-1.47.97-2.42.97-1.99,0-3.29-1.29-3.29-3.56ZM87.65,368.84v-3.57c-.68-.52-1.29-.71-1.95-.71-1.28,0-2.29,1.05-2.29,2.6,0,1.63.79,2.6,2.19,2.6.74,0,1.38-.31,2.05-.93Z"/>
    <path class="cls-3" d="M91.11,367.18c0-2.22,1.75-3.58,3.59-3.58,2.04,0,3.19,1.25,3.19,3.2,0,.24-.02.49-.06.65h-5.37c.1,1.44,1.13,2.38,2.65,2.38.77,0,1.4-.21,1.99-.54l.48.76c-.7.39-1.55.71-2.64.71-2.13,0-3.82-1.33-3.82-3.56ZM96.69,366.62c0-1.36-.72-2.11-1.97-2.11-1.12,0-2.12.77-2.29,2.11h4.26Z"/>
    <path class="cls-3" d="M102.53,367.18c0-2.27,1.74-3.58,3.7-3.58s3.7,1.31,3.7,3.58-1.74,3.56-3.7,3.56-3.7-1.31-3.7-3.56ZM108.53,367.18c0-1.56-.93-2.62-2.3-2.62s-2.3,1.06-2.3,2.62.93,2.6,2.3,2.6,2.3-1.04,2.3-2.6Z"/>
    <path class="cls-3" d="M111.16,363.83l1.14-.07h2.98v.94h-4.12v-.87ZM112.24,362.69c0-1.38.74-2.26,2.34-2.26.49,0,.96.1,1.33.23l-.29.88c-.3-.12-.62-.18-.9-.18-.75,0-1.12.45-1.12,1.33v7.88h-1.35v-7.88Z"/>
    <path class="cls-3" d="M119.5,367.18c0-2.22,1.75-3.58,3.59-3.58,2.04,0,3.19,1.25,3.19,3.2,0,.24-.02.49-.06.65h-5.37c.1,1.44,1.13,2.38,2.65,2.38.77,0,1.4-.21,1.99-.54l.48.76c-.7.39-1.55.71-2.64.71-2.13,0-3.82-1.33-3.82-3.56ZM125.08,366.62c0-1.36-.72-2.11-1.97-2.11-1.12,0-2.12.77-2.29,2.11h4.26Z"/>
    <path class="cls-3" d="M129.73,367.02l-2.41-3.25h1.46l1.07,1.49c.24.38.52.76.78,1.13h.07c.24-.37.48-.76.72-1.13l.98-1.49h1.41l-2.41,3.38,2.61,3.43h-1.46l-1.18-1.58c-.28-.41-.57-.83-.87-1.22h-.07c-.27.39-.53.81-.81,1.22l-1.08,1.58h-1.41l2.61-3.55Z"/>
    <path class="cls-3" d="M135.56,363.77h1.12l.11.79h.04c.72-.51,1.62-.95,2.54-.95,2.06,0,3.16,1.37,3.16,3.47,0,2.32-1.63,3.68-3.46,3.68-.73,0-1.48-.29-2.21-.79l.04,1.19v2.31h-1.35v-9.68ZM141.14,367.08c0-1.5-.6-2.51-2.1-2.51-.68,0-1.36.32-2.13.93v3.57c.72.52,1.42.71,1.94.71,1.32,0,2.29-1.01,2.29-2.7Z"/>
    <path class="cls-3" d="M144.07,367.18c0-2.22,1.75-3.58,3.59-3.58,2.04,0,3.19,1.25,3.19,3.2,0,.24-.02.49-.06.65h-5.37c.1,1.44,1.13,2.38,2.65,2.38.77,0,1.4-.21,1.99-.54l.48.76c-.7.39-1.55.71-2.64.71-2.13,0-3.82-1.33-3.82-3.56ZM149.65,366.62c0-1.36-.72-2.11-1.97-2.11-1.12,0-2.12.77-2.29,2.11h4.26Z"/>
    <path class="cls-3" d="M152.81,363.77h1.12l.11,1.24h.04c.56-.86,1.37-1.41,2.27-1.41.35,0,.6.04.85.14l-.25,1.01c-.27-.07-.45-.11-.77-.11-.67,0-1.48.42-2.02,1.57v4.37h-1.35v-6.81Z"/>
    <path class="cls-3" d="M158.74,368.47v-3.76h-1.19v-.87l1.25-.07.16-1.91h1.13v1.91h2.16v.94h-2.16v3.79c0,.83.31,1.31,1.23,1.31.28,0,.65-.09.91-.18l.26.87c-.45.13-.98.25-1.48.25-1.7,0-2.27-.92-2.27-2.27Z"/>
    <path class="cls-3" d="M163.8,361.62c0-.45.41-.74.93-.74s.93.29.93.74-.41.74-.93.74-.93-.31-.93-.74ZM164.05,363.77h1.35v6.81h-1.35v-6.81Z"/>
    <path class="cls-3" d="M167.2,369.8l.67-.76c.69.48,1.4.81,2.36.81,1.05,0,1.57-.48,1.57-1.06,0-.7-.94-1.01-1.83-1.29-1.12-.35-2.38-.82-2.38-1.97s1.02-1.93,2.75-1.93c.99,0,1.86.35,2.48.77l-.65.74c-.55-.35-1.11-.61-1.82-.61-1.01,0-1.47.46-1.47.98,0,.65.87.89,1.77,1.18,1.15.37,2.43.77,2.43,2.07,0,1.1-1.03,2.02-2.91,2.02-1.13,0-2.23-.41-2.98-.95Z"/>
    <path class="cls-3" d="M174.37,367.18c0-2.22,1.75-3.58,3.59-3.58,2.04,0,3.19,1.25,3.19,3.2,0,.24-.02.49-.06.65h-5.37c.1,1.44,1.13,2.38,2.65,2.38.77,0,1.4-.21,1.99-.54l.48.76c-.7.39-1.55.71-2.64.71-2.13,0-3.82-1.33-3.82-3.56ZM179.95,366.62c0-1.36-.72-2.11-1.97-2.11-1.12,0-2.12.77-2.29,2.11h4.26Z"/>
    <path class="cls-3" d="M186.14,361.62c0-.45.41-.74.93-.74s.93.29.93.74-.41.74-.93.74-.93-.31-.93-.74ZM186.39,363.77h1.35v6.81h-1.35v-6.81Z"/>
    <path class="cls-3" d="M190.43,363.77h1.12l.11.98h.04c.76-.64,1.58-1.15,2.68-1.15,1.68,0,2.44.93,2.44,2.66v4.31h-1.35v-4.17c0-1.27-.45-1.81-1.51-1.81-.82,0-1.38.36-2.18,1.05v4.93h-1.35v-6.81Z"/>
    <path class="cls-3" d="M201.86,369.28l.97-.59c.49.73,1.09,1.03,1.87,1.03,1.15,0,1.72-.56,1.72-1.95v-6.38h1.37v6.49c0,1.59-.86,2.87-2.97,2.87-1.37,0-2.34-.51-2.96-1.47Z"/>
    <path class="cls-3" d="M210.07,368.81c0-1.48,1.5-2.23,4.9-2.54,0-.88-.34-1.72-1.65-1.72-.92,0-1.75.37-2.38.73l-.53-.79c.73-.41,1.85-.89,3.13-.89,1.95,0,2.77,1.1,2.77,2.8v4.18h-1.12l-.11-.81h-.04c-.76.54-1.65.98-2.64.98-1.34,0-2.34-.71-2.34-1.94ZM214.97,368.91v-1.89c-2.67.27-3.58.83-3.58,1.7,0,.77.62,1.09,1.4,1.09s1.41-.32,2.18-.9Z"/>
    <path class="cls-3" d="M217.69,363.77h1.39l1.51,3.87c.24.67.5,1.36.74,2.01h.07c.24-.65.5-1.34.74-2.01l1.51-3.87h1.32l-2.82,6.81h-1.57l-2.88-6.81Z"/>
    <path class="cls-3" d="M226.01,368.81c0-1.48,1.5-2.23,4.9-2.54,0-.88-.34-1.72-1.65-1.72-.92,0-1.75.37-2.38.73l-.53-.79c.73-.41,1.85-.89,3.13-.89,1.95,0,2.77,1.1,2.77,2.8v4.18h-1.12l-.11-.81h-.04c-.76.54-1.65.98-2.64.98-1.34,0-2.34-.71-2.34-1.94ZM230.91,368.91v-1.89c-2.67.27-3.58.83-3.58,1.7,0,.77.62,1.09,1.4,1.09s1.41-.32,2.18-.9Z"/>
    <path class="cls-3" d="M234.12,369.38l.82-.8c.78.69,1.85,1.14,2.97,1.14,1.41,0,2.25-.6,2.25-1.49,0-.94-.78-1.24-1.8-1.62l-1.55-.58c-1-.37-2.18-1.01-2.18-2.37s1.43-2.44,3.39-2.44c1.28,0,2.42.47,3.17,1.14l-.73.75c-.66-.53-1.45-.86-2.45-.86-1.21,0-2.01.52-2.01,1.34,0,.89.94,1.22,1.78,1.52l1.54.57c1.25.46,2.22,1.09,2.22,2.46,0,1.45-1.41,2.61-3.67,2.61-1.51,0-2.83-.53-3.77-1.36Z"/>
    <path class="cls-3" d="M242.95,367.18c0-2.27,1.8-3.58,3.84-3.58,1.05,0,1.77.37,2.33.8l-.69.76c-.46-.36-.96-.6-1.58-.6-1.45,0-2.5,1.06-2.5,2.62s1,2.6,2.47,2.6c.73,0,1.38-.3,1.87-.68l.59.77c-.72.54-1.62.87-2.58.87-2.12,0-3.74-1.31-3.74-3.56Z"/>
    <path class="cls-3" d="M251.03,363.77h1.12l.11,1.24h.04c.56-.86,1.37-1.41,2.27-1.41.35,0,.6.04.85.14l-.25,1.01c-.28-.07-.46-.11-.77-.11-.67,0-1.48.42-2.02,1.57v4.37h-1.35v-6.81Z"/>
    <path class="cls-3" d="M256.47,361.62c0-.45.41-.74.93-.74s.93.29.93.74-.41.74-.93.74-.93-.31-.93-.74ZM256.72,363.77h1.35v6.81h-1.35v-6.81Z"/>
    <path class="cls-3" d="M260.76,363.77h1.12l.11.79h.04c.72-.51,1.62-.95,2.54-.95,2.06,0,3.17,1.37,3.17,3.47,0,2.32-1.63,3.68-3.46,3.68-.73,0-1.48-.29-2.21-.79l.04,1.19v2.31h-1.35v-9.68ZM266.35,367.08c0-1.5-.6-2.51-2.1-2.51-.68,0-1.36.32-2.13.93v3.57c.72.52,1.42.71,1.94.71,1.32,0,2.29-1.01,2.29-2.7Z"/>
    <path class="cls-3" d="M270.1,368.47v-3.76h-1.19v-.87l1.25-.07.16-1.91h1.13v1.91h2.16v.94h-2.16v3.79c0,.83.31,1.31,1.23,1.31.28,0,.65-.09.91-.18l.26.87c-.45.13-.98.25-1.48.25-1.7,0-2.27-.92-2.27-2.27Z"/>
    <path class="cls-3" d="M274.85,372.28c.92-.35,1.48-.97,1.48-1.74l-.14-1.03.66.84c-.18.19-.42.24-.68.24-.52,0-.98-.28-.98-.8s.46-.8,1-.8c.72,0,1.15.51,1.15,1.35,0,1.21-.83,2.15-2.15,2.62l-.33-.68Z"/>
    <path class="cls-3" d="M282.29,365.99c0-2.96,2.05-4.77,4.78-4.77,1.31,0,2.33.54,2.96,1.13l-.75.76c-.57-.52-1.28-.87-2.19-.87-2.04,0-3.39,1.42-3.39,3.71s1.29,3.76,3.34,3.76c1.03,0,1.81-.38,2.5-1.03l.75.73c-.85.84-1.91,1.33-3.31,1.33-2.68,0-4.7-1.77-4.7-4.76Z"/>
    <path class="cls-3" d="M291.5,369.38l.82-.8c.78.69,1.85,1.14,2.97,1.14,1.41,0,2.25-.6,2.25-1.49,0-.94-.78-1.24-1.8-1.62l-1.55-.58c-1-.37-2.18-1.01-2.18-2.37s1.43-2.44,3.39-2.44c1.28,0,2.42.47,3.17,1.14l-.73.75c-.66-.53-1.45-.86-2.45-.86-1.21,0-2.01.52-2.01,1.34,0,.89.94,1.22,1.78,1.52l1.54.57c1.25.46,2.22,1.09,2.22,2.46,0,1.45-1.41,2.61-3.67,2.61-1.51,0-2.83-.53-3.77-1.36Z"/>
    <path class="cls-3" d="M300.27,369.38l.82-.8c.78.69,1.85,1.14,2.97,1.14,1.41,0,2.25-.6,2.25-1.49,0-.94-.78-1.24-1.8-1.62l-1.55-.58c-1-.37-2.18-1.01-2.18-2.37s1.43-2.44,3.39-2.44c1.28,0,2.42.47,3.17,1.14l-.73.75c-.66-.53-1.45-.86-2.45-.86-1.21,0-2.01.52-2.01,1.34,0,.89.94,1.22,1.78,1.52l1.54.57c1.25.46,2.22,1.09,2.22,2.46,0,1.45-1.41,2.61-3.67,2.61-1.51,0-2.83-.53-3.77-1.36Z"/>
    <path class="cls-3" d="M309.12,372.28c.92-.35,1.48-.97,1.48-1.74l-.14-1.03.66.84c-.18.19-.42.24-.68.24-.52,0-.98-.28-.98-.8s.46-.8,1-.8c.72,0,1.15.51,1.15,1.35,0,1.21-.83,2.15-2.15,2.62l-.33-.68Z"/>
    <path class="cls-3" d="M316.56,368.81c0-1.48,1.5-2.23,4.9-2.54,0-.88-.34-1.72-1.65-1.72-.92,0-1.75.37-2.38.73l-.53-.79c.73-.41,1.85-.89,3.13-.89,1.95,0,2.77,1.1,2.77,2.8v4.18h-1.12l-.11-.81h-.04c-.76.54-1.65.98-2.64.98-1.34,0-2.34-.71-2.34-1.94ZM321.46,368.91v-1.89c-2.67.27-3.58.83-3.58,1.7,0,.77.62,1.09,1.4,1.09s1.41-.32,2.18-.9Z"/>
    <path class="cls-3" d="M325.33,363.77h1.12l.11.98h.04c.76-.64,1.58-1.15,2.68-1.15,1.68,0,2.44.93,2.44,2.66v4.31h-1.35v-4.17c0-1.27-.45-1.81-1.51-1.81-.82,0-1.38.36-2.18,1.05v4.93h-1.35v-6.81Z"/>
    <path class="cls-3" d="M333.74,367.18c0-2.21,1.63-3.58,3.45-3.58.93,0,1.54.3,2.24.79l-.06-1.17v-2.62h1.35v9.98h-1.12l-.11-.8h-.04c-.62.53-1.47.97-2.42.97-2,0-3.29-1.29-3.29-3.56ZM339.37,368.84v-3.57c-.68-.52-1.29-.71-1.95-.71-1.28,0-2.29,1.05-2.29,2.6,0,1.63.79,2.6,2.19,2.6.74,0,1.38-.31,2.05-.93Z"/>
    <path class="cls-3" d="M350.11,361.38h1.37v3.85h5.01v-3.85h1.37v9.19h-1.37v-4.32h-5.01v4.32h-1.37v-9.19Z"/>
    <path class="cls-3" d="M363.05,362.37h-3.26v-.99h7.89v.99h-3.26v8.2h-1.37v-8.2Z"/>
    <path class="cls-3" d="M369.61,361.38h1.65l2.07,4.91c.26.63.51,1.28.77,1.92h.07c.26-.64.49-1.29.75-1.92l2.04-4.91h1.65v9.19h-1.27v-5.06c0-.8.1-1.91.17-2.72h-.07l-.86,2.1-2.03,4.75h-.91l-2.04-4.75-.85-2.1h-.07c.07.81.17,1.92.17,2.72v5.06h-1.24v-9.19Z"/>
    <path class="cls-3" d="M381.54,361.38h1.37v8.2h4.7v.99h-6.07v-9.19Z"/>
    <path class="cls-3" d="M389.11,369.87c0-.53.44-.89.98-.89s.98.36.98.89-.44.87-.98.87-.98-.36-.98-.87Z"/>
    <path class="cls-3" d="M3.37,376.38h1.42l1.13,5c.21.99.42,1.98.63,2.96h.07c.24-.99.5-1.98.76-2.96l1.5-5h1.24l1.5,5c.26.97.52,1.97.78,2.96h.07c.21-.99.4-1.99.61-2.96l1.13-5h1.32l-2.23,9.19h-1.65l-1.63-5.53c-.19-.72-.36-1.39-.52-2.09h-.07c-.17.71-.35,1.38-.54,2.09l-1.6,5.53h-1.62l-2.29-9.19Z"/>
    <path class="cls-3" d="M16.65,382.18c0-2.22,1.75-3.58,3.59-3.58,2.04,0,3.19,1.25,3.19,3.2,0,.24-.02.49-.06.65h-5.37c.1,1.44,1.13,2.38,2.65,2.38.77,0,1.4-.21,1.99-.54l.48.76c-.7.39-1.55.71-2.64.71-2.13,0-3.82-1.33-3.82-3.56ZM22.23,381.62c0-1.36-.72-2.11-1.97-2.11-1.12,0-2.12.77-2.29,2.11h4.26Z"/>
    <path class="cls-3" d="M27.79,384.8l.67-.76c.69.48,1.4.81,2.36.81,1.05,0,1.57-.48,1.57-1.06,0-.7-.94-1.01-1.83-1.29-1.12-.35-2.38-.82-2.38-1.97s1.02-1.93,2.75-1.93c.99,0,1.86.35,2.48.77l-.65.74c-.55-.35-1.11-.61-1.82-.61-1.01,0-1.47.46-1.47.98,0,.65.87.89,1.77,1.18,1.15.37,2.43.77,2.43,2.07,0,1.1-1.03,2.02-2.91,2.02-1.13,0-2.23-.41-2.98-.95Z"/>
    <path class="cls-3" d="M35.55,378.77h1.12l.11.79h.04c.72-.51,1.62-.95,2.54-.95,2.06,0,3.16,1.37,3.16,3.47,0,2.32-1.63,3.68-3.46,3.68-.73,0-1.48-.29-2.21-.79l.04,1.19v2.31h-1.35v-9.68ZM41.14,382.08c0-1.5-.6-2.51-2.1-2.51-.68,0-1.36.32-2.13.93v3.57c.72.52,1.42.71,1.94.71,1.32,0,2.29-1.01,2.29-2.7Z"/>
    <path class="cls-3" d="M44.07,382.18c0-2.22,1.75-3.58,3.59-3.58,2.04,0,3.19,1.25,3.19,3.2,0,.24-.02.49-.06.65h-5.37c.1,1.44,1.13,2.38,2.65,2.38.77,0,1.4-.21,1.99-.54l.48.76c-.7.39-1.55.71-2.64.71-2.13,0-3.82-1.33-3.82-3.56ZM49.64,381.62c0-1.36-.72-2.11-1.97-2.11-1.12,0-2.12.77-2.29,2.11h4.26Z"/>
    <path class="cls-3" d="M52.21,382.18c0-2.27,1.8-3.58,3.84-3.58,1.05,0,1.77.37,2.33.8l-.69.76c-.46-.36-.96-.6-1.58-.6-1.44,0-2.5,1.06-2.5,2.62s1,2.6,2.47,2.6c.73,0,1.38-.3,1.87-.68l.59.77c-.72.54-1.62.87-2.58.87-2.12,0-3.74-1.31-3.74-3.56Z"/>
    <path class="cls-3" d="M60.04,376.62c0-.45.41-.74.93-.74s.93.29.93.74-.41.74-.93.74-.93-.31-.93-.74ZM60.28,378.77h1.35v6.81h-1.35v-6.81Z"/>
    <path class="cls-3" d="M63.83,383.81c0-1.48,1.5-2.23,4.9-2.54,0-.88-.34-1.72-1.65-1.72-.92,0-1.75.37-2.38.73l-.53-.79c.73-.41,1.85-.89,3.13-.89,1.95,0,2.77,1.1,2.77,2.8v4.18h-1.12l-.11-.81h-.04c-.76.54-1.65.98-2.64.98-1.34,0-2.34-.71-2.34-1.94ZM68.73,383.91v-1.89c-2.67.27-3.58.83-3.58,1.7,0,.77.62,1.09,1.4,1.09s1.41-.32,2.18-.9Z"/>
    <path class="cls-3" d="M72.59,384.21v-8.61h1.35v8.7c0,.35.18.49.38.49.08,0,.14,0,.3-.03l.18.88c-.19.06-.42.11-.78.11-1.01,0-1.43-.55-1.43-1.54Z"/>
    <path class="cls-3" d="M76.53,376.62c0-.45.41-.74.93-.74s.93.29.93.74-.41.74-.93.74-.93-.31-.93-.74ZM76.78,378.77h1.35v6.81h-1.35v-6.81Z"/>
    <path class="cls-3" d="M79.98,384.96l4.2-5.25h-3.73v-.94h5.44v.62l-4.2,5.25h4.34v.94h-6.05v-.62Z"/>
    <path class="cls-3" d="M87.2,382.18c0-2.22,1.75-3.58,3.59-3.58,2.04,0,3.19,1.25,3.19,3.2,0,.24-.02.49-.06.65h-5.37c.1,1.44,1.13,2.38,2.65,2.38.77,0,1.4-.21,1.99-.54l.48.76c-.7.39-1.55.71-2.64.71-2.13,0-3.82-1.33-3.82-3.56ZM92.78,381.62c0-1.36-.72-2.11-1.97-2.11-1.12,0-2.12.77-2.29,2.11h4.26Z"/>
    <path class="cls-3" d="M98.97,376.62c0-.45.41-.74.93-.74s.93.29.93.74-.41.74-.93.74-.93-.31-.93-.74ZM99.22,378.77h1.35v6.81h-1.35v-6.81Z"/>
    <path class="cls-3" d="M103.25,378.77h1.12l.11.98h.04c.76-.64,1.58-1.15,2.68-1.15,1.68,0,2.44.93,2.44,2.66v4.31h-1.35v-4.17c0-1.27-.45-1.81-1.51-1.81-.82,0-1.38.36-2.18,1.05v4.93h-1.35v-6.81Z"/>
    <path class="cls-3" d="M115.27,376.62c0-.45.41-.74.93-.74s.93.29.93.74-.41.74-.93.74-.93-.31-.93-.74ZM115.52,378.77h1.35v6.81h-1.35v-6.81Z"/>
    <path class="cls-3" d="M119.55,378.77h1.12l.11.98h.04c.76-.64,1.58-1.15,2.68-1.15,1.68,0,2.44.93,2.44,2.66v4.31h-1.35v-4.17c0-1.27-.45-1.81-1.51-1.81-.82,0-1.38.36-2.18,1.05v4.93h-1.35v-6.81Z"/>
    <path class="cls-3" d="M128.53,378.77h1.12l.11.98h.04c.76-.64,1.58-1.15,2.68-1.15,1.68,0,2.44.93,2.44,2.66v4.31h-1.35v-4.17c0-1.27-.45-1.81-1.51-1.81-.82,0-1.38.36-2.18,1.05v4.93h-1.35v-6.81Z"/>
    <path class="cls-3" d="M136.92,382.18c0-2.27,1.74-3.58,3.7-3.58s3.7,1.31,3.7,3.58-1.74,3.56-3.7,3.56-3.7-1.31-3.7-3.56ZM142.92,382.18c0-1.56-.93-2.62-2.3-2.62s-2.3,1.06-2.3,2.62.93,2.6,2.3,2.6,2.3-1.04,2.3-2.6Z"/>
    <path class="cls-3" d="M145.26,378.77h1.39l1.51,3.87c.24.67.5,1.36.74,2.01h.07c.24-.65.5-1.34.74-2.01l1.51-3.87h1.32l-2.82,6.81h-1.57l-2.88-6.81Z"/>
    <path class="cls-3" d="M153.58,383.81c0-1.48,1.5-2.23,4.9-2.54,0-.88-.34-1.72-1.65-1.72-.92,0-1.75.37-2.38.73l-.53-.79c.73-.41,1.85-.89,3.13-.89,1.95,0,2.77,1.1,2.77,2.8v4.18h-1.12l-.11-.81h-.04c-.76.54-1.65.98-2.64.98-1.34,0-2.34-.71-2.34-1.94ZM158.48,383.91v-1.89c-2.67.27-3.58.83-3.58,1.7,0,.77.62,1.09,1.4,1.09s1.41-.32,2.18-.9Z"/>
    <path class="cls-3" d="M162.58,383.47v-3.76h-1.19v-.87l1.25-.07.16-1.91h1.13v1.91h2.16v.94h-2.16v3.79c0,.83.31,1.31,1.23,1.31.28,0,.65-.09.91-.18l.26.87c-.45.13-.98.25-1.48.25-1.7,0-2.27-.92-2.27-2.27Z"/>
    <path class="cls-3" d="M167.64,376.62c0-.45.41-.74.93-.74s.93.29.93.74-.41.74-.93.74-.93-.31-.93-.74ZM167.89,378.77h1.35v6.81h-1.35v-6.81Z"/>
    <path class="cls-3" d="M170.78,378.77h1.39l1.51,3.87c.24.67.5,1.36.74,2.01h.07c.24-.65.5-1.34.74-2.01l1.51-3.87h1.32l-2.82,6.81h-1.57l-2.88-6.81Z"/>
    <path class="cls-3" d="M179,382.18c0-2.22,1.75-3.58,3.59-3.58,2.04,0,3.19,1.25,3.19,3.2,0,.24-.02.49-.06.65h-5.37c.1,1.44,1.13,2.38,2.65,2.38.77,0,1.4-.21,1.99-.54l.48.76c-.7.39-1.55.71-2.64.71-2.13,0-3.82-1.33-3.82-3.56ZM184.58,381.62c0-1.36-.72-2.11-1.97-2.11-1.12,0-2.12.77-2.29,2.11h4.26Z"/>
    <path class="cls-3" d="M190.06,378.77h1.38l1.18,3.93c.17.65.32,1.26.47,1.9h.07c.17-.64.35-1.26.54-1.9l1.23-3.93h1.32l1.24,3.93c.2.65.37,1.26.56,1.9h.07c.17-.64.32-1.25.49-1.9l1.16-3.93h1.29l-2.14,6.81h-1.64l-1.15-3.66c-.19-.64-.35-1.27-.54-1.96h-.07c-.17.69-.33,1.34-.55,1.98l-1.12,3.64h-1.58l-2.22-6.81Z"/>
    <path class="cls-3" d="M202.21,382.18c0-2.22,1.75-3.58,3.59-3.58,2.04,0,3.19,1.25,3.19,3.2,0,.24-.02.49-.06.65h-5.37c.1,1.44,1.13,2.38,2.65,2.38.77,0,1.4-.21,1.99-.54l.48.76c-.7.39-1.55.71-2.64.71-2.13,0-3.82-1.33-3.82-3.56ZM207.79,381.62c0-1.36-.72-2.11-1.97-2.11-1.12,0-2.12.77-2.29,2.11h4.26Z"/>
    <path class="cls-3" d="M212.19,384.87h-.04l-.13.7h-1.08v-9.98h1.35v2.73l-.04,1.22c.73-.54,1.62-.95,2.51-.95,2.06,0,3.17,1.37,3.17,3.46,0,2.33-1.63,3.68-3.46,3.68-.74,0-1.57-.33-2.28-.87ZM216.53,382.08c0-1.5-.6-2.51-2.1-2.51-.68,0-1.38.32-2.13.93v3.57c.7.52,1.42.71,1.94.71,1.32,0,2.29-1.01,2.29-2.7Z"/>
    <path class="cls-3" d="M222.81,383.81c0-1.48,1.5-2.23,4.9-2.54,0-.88-.34-1.72-1.65-1.72-.92,0-1.75.37-2.38.73l-.53-.79c.73-.41,1.85-.89,3.13-.89,1.95,0,2.77,1.1,2.77,2.8v4.18h-1.12l-.11-.81h-.04c-.76.54-1.65.98-2.64.98-1.34,0-2.34-.71-2.34-1.94ZM227.71,383.91v-1.89c-2.67.27-3.58.83-3.58,1.7,0,.77.62,1.09,1.4,1.09s1.41-.32,2.18-.9Z"/>
    <path class="cls-3" d="M231.58,378.77h1.12l.11.79h.04c.72-.51,1.62-.95,2.54-.95,2.06,0,3.17,1.37,3.17,3.47,0,2.32-1.63,3.68-3.46,3.68-.73,0-1.48-.29-2.21-.79l.04,1.19v2.31h-1.35v-9.68ZM237.16,382.08c0-1.5-.6-2.51-2.1-2.51-.68,0-1.36.32-2.13.93v3.57c.72.52,1.42.71,1.94.71,1.32,0,2.29-1.01,2.29-2.7Z"/>
    <path class="cls-3" d="M240.69,378.77h1.12l.11.79h.04c.72-.51,1.62-.95,2.54-.95,2.06,0,3.17,1.37,3.17,3.47,0,2.32-1.63,3.68-3.46,3.68-.73,0-1.48-.29-2.21-.79l.04,1.19v2.31h-1.35v-9.68ZM246.27,382.08c0-1.5-.6-2.51-2.1-2.51-.68,0-1.36.32-2.13.93v3.57c.72.52,1.42.71,1.94.71,1.32,0,2.29-1.01,2.29-2.7Z"/>
    <path class="cls-3" d="M249.79,384.21v-8.61h1.35v8.7c0,.35.18.49.38.49.08,0,.14,0,.29-.03l.18.88c-.19.06-.42.11-.78.11-1.01,0-1.43-.55-1.43-1.54Z"/>
    <path class="cls-3" d="M253.73,376.62c0-.45.41-.74.93-.74s.93.29.93.74-.41.74-.93.74-.93-.31-.93-.74ZM253.98,378.77h1.35v6.81h-1.35v-6.81Z"/>
    <path class="cls-3" d="M257.42,382.18c0-2.27,1.8-3.58,3.84-3.58,1.05,0,1.77.37,2.33.8l-.69.76c-.46-.36-.96-.6-1.58-.6-1.45,0-2.5,1.06-2.5,2.62s1,2.6,2.47,2.6c.73,0,1.38-.3,1.87-.68l.59.77c-.72.54-1.62.87-2.58.87-2.12,0-3.74-1.31-3.74-3.56Z"/>
    <path class="cls-3" d="M265.01,383.81c0-1.48,1.5-2.23,4.9-2.54,0-.88-.34-1.72-1.65-1.72-.92,0-1.75.37-2.38.73l-.53-.79c.73-.41,1.85-.89,3.13-.89,1.95,0,2.77,1.1,2.77,2.8v4.18h-1.12l-.11-.81h-.04c-.76.54-1.65.98-2.64.98-1.34,0-2.34-.71-2.34-1.94ZM269.91,383.91v-1.89c-2.67.27-3.58.83-3.58,1.7,0,.77.62,1.09,1.4,1.09s1.41-.32,2.18-.9Z"/>
    <path class="cls-3" d="M274.01,383.47v-3.76h-1.19v-.87l1.25-.07.16-1.91h1.13v1.91h2.16v.94h-2.16v3.79c0,.83.31,1.31,1.23,1.31.28,0,.65-.09.91-.18l.26.87c-.45.13-.98.25-1.48.25-1.7,0-2.27-.92-2.27-2.27Z"/>
    <path class="cls-3" d="M279.08,376.62c0-.45.41-.74.93-.74s.93.29.93.74-.41.74-.93.74-.93-.31-.93-.74ZM279.32,378.77h1.35v6.81h-1.35v-6.81Z"/>
    <path class="cls-3" d="M282.77,382.18c0-2.27,1.74-3.58,3.7-3.58s3.7,1.31,3.7,3.58-1.74,3.56-3.7,3.56-3.7-1.31-3.7-3.56ZM288.77,382.18c0-1.56-.93-2.62-2.3-2.62s-2.3,1.06-2.3,2.62.93,2.6,2.3,2.6,2.3-1.04,2.3-2.6Z"/>
    <path class="cls-3" d="M292.26,378.77h1.12l.11.98h.04c.76-.64,1.58-1.15,2.68-1.15,1.68,0,2.44.93,2.44,2.66v4.31h-1.35v-4.17c0-1.27-.45-1.81-1.51-1.81-.82,0-1.38.36-2.18,1.05v4.93h-1.35v-6.81Z"/>
    <path class="cls-3" d="M303.95,382.18c0-2.21,1.63-3.58,3.45-3.58.93,0,1.54.3,2.24.79l-.06-1.17v-2.62h1.35v9.98h-1.12l-.11-.8h-.04c-.62.53-1.47.97-2.42.97-2,0-3.29-1.29-3.29-3.56ZM309.58,383.84v-3.57c-.68-.52-1.29-.71-1.95-.71-1.28,0-2.29,1.05-2.29,2.6,0,1.63.79,2.6,2.19,2.6.74,0,1.38-.31,2.05-.93Z"/>
    <path class="cls-3" d="M313.03,382.18c0-2.22,1.75-3.58,3.59-3.58,2.04,0,3.19,1.25,3.19,3.2,0,.24-.02.49-.06.65h-5.37c.1,1.44,1.13,2.38,2.65,2.38.77,0,1.4-.21,1.99-.54l.48.76c-.7.39-1.55.71-2.64.71-2.13,0-3.82-1.33-3.82-3.56ZM318.61,381.62c0-1.36-.72-2.11-1.97-2.11-1.12,0-2.12.77-2.29,2.11h4.26Z"/>
    <path class="cls-3" d="M320.62,378.77h1.39l1.51,3.87c.24.67.5,1.36.74,2.01h.07c.24-.65.5-1.34.74-2.01l1.51-3.87h1.32l-2.82,6.81h-1.57l-2.88-6.81Z"/>
    <path class="cls-3" d="M328.84,382.18c0-2.22,1.75-3.58,3.59-3.58,2.04,0,3.19,1.25,3.19,3.2,0,.24-.02.49-.06.65h-5.37c.1,1.44,1.13,2.38,2.65,2.38.77,0,1.4-.21,1.99-.54l.48.76c-.7.39-1.55.71-2.64.71-2.13,0-3.82-1.33-3.82-3.56ZM334.42,381.62c0-1.36-.72-2.11-1.97-2.11-1.12,0-2.12.77-2.29,2.11h4.26Z"/>
    <path class="cls-3" d="M337.57,384.21v-8.61h1.35v8.7c0,.35.18.49.38.49.08,0,.14,0,.29-.03l.18.88c-.19.06-.42.11-.78.11-1.01,0-1.43-.55-1.43-1.54Z"/>
    <path class="cls-3" d="M341.17,382.18c0-2.27,1.74-3.58,3.7-3.58s3.7,1.31,3.7,3.58-1.74,3.56-3.7,3.56-3.7-1.31-3.7-3.56ZM347.17,382.18c0-1.56-.93-2.62-2.3-2.62s-2.3,1.06-2.3,2.62.93,2.6,2.3,2.6,2.3-1.04,2.3-2.6Z"/>
    <path class="cls-3" d="M350.66,378.77h1.12l.11.79h.04c.72-.51,1.62-.95,2.54-.95,2.06,0,3.17,1.37,3.17,3.47,0,2.32-1.63,3.68-3.46,3.68-.73,0-1.48-.29-2.21-.79l.04,1.19v2.31h-1.35v-9.68ZM356.24,382.08c0-1.5-.6-2.51-2.1-2.51-.68,0-1.36.32-2.13.93v3.57c.72.52,1.42.71,1.94.71,1.32,0,2.29-1.01,2.29-2.7Z"/>
    <path class="cls-3" d="M359.77,378.77h1.12l.11.99h.04c.7-.64,1.53-1.16,2.48-1.16,1.22,0,1.88.5,2.2,1.3.83-.77,1.66-1.3,2.63-1.3,1.64,0,2.43.93,2.43,2.66v4.31h-1.35v-4.17c0-1.27-.47-1.81-1.48-1.81-.62,0-1.26.34-2,1.05v4.93h-1.35v-4.17c0-1.27-.47-1.81-1.49-1.81-.6,0-1.26.34-2,1.05v4.93h-1.35v-6.81Z"/>
    <path class="cls-3" d="M372.78,382.18c0-2.22,1.75-3.58,3.59-3.58,2.04,0,3.18,1.25,3.18,3.2,0,.24-.02.49-.06.65h-5.37c.1,1.44,1.13,2.38,2.65,2.38.77,0,1.39-.21,1.99-.54l.48.76c-.7.39-1.55.71-2.64.71-2.13,0-3.82-1.33-3.82-3.56ZM378.36,381.62c0-1.36-.72-2.11-1.97-2.11-1.12,0-2.12.77-2.29,2.11h4.26Z"/>
    <path class="cls-3" d="M381.51,378.77h1.12l.11.98h.04c.76-.64,1.58-1.15,2.68-1.15,1.68,0,2.44.93,2.44,2.66v4.31h-1.35v-4.17c0-1.27-.45-1.81-1.51-1.81-.82,0-1.38.36-2.18,1.05v4.93h-1.35v-6.81Z"/>
    <path class="cls-3" d="M390.73,383.47v-3.76h-1.19v-.87l1.25-.07.16-1.91h1.13v1.91h2.16v.94h-2.16v3.79c0,.83.31,1.31,1.23,1.31.28,0,.65-.09.91-.18l.26.87c-.45.13-.98.25-1.48.25-1.7,0-2.27-.92-2.27-2.27Z"/>
    <path class="cls-3" d="M395.47,387.28c.92-.35,1.48-.97,1.48-1.74l-.14-1.03.66.84c-.18.19-.42.24-.68.24-.52,0-.98-.28-.98-.8s.46-.8,1-.8c.72,0,1.15.51,1.15,1.35,0,1.21-.83,2.15-2.15,2.62l-.33-.68Z"/>
    <path class="cls-3" d="M4.24,398.08v-4.31h1.35v4.17c0,1.27.45,1.81,1.51,1.81.82,0,1.38-.35,2.14-1.15v-4.83h1.35v6.81h-1.12l-.11-1.07h-.04c-.74.74-1.54,1.23-2.63,1.23-1.68,0-2.44-.93-2.44-2.66Z"/>
    <path class="cls-3" d="M12.39,399.8l.67-.76c.69.48,1.4.81,2.36.81,1.05,0,1.57-.48,1.57-1.06,0-.7-.94-1.01-1.83-1.29-1.12-.35-2.38-.82-2.38-1.97s1.02-1.93,2.75-1.93c.99,0,1.86.35,2.48.77l-.65.74c-.55-.35-1.11-.61-1.82-.61-1.01,0-1.47.46-1.47.98,0,.65.87.89,1.77,1.18,1.15.37,2.43.77,2.43,2.07,0,1.1-1.03,2.02-2.91,2.02-1.13,0-2.23-.41-2.98-.95Z"/>
    <path class="cls-3" d="M19.56,397.18c0-2.22,1.75-3.58,3.59-3.58,2.04,0,3.19,1.25,3.19,3.2,0,.24-.02.49-.06.65h-5.37c.1,1.44,1.13,2.38,2.65,2.38.77,0,1.4-.21,1.99-.54l.48.76c-.7.39-1.55.71-2.64.71-2.13,0-3.82-1.33-3.82-3.56ZM25.14,396.62c0-1.36-.72-2.11-1.97-2.11-1.12,0-2.12.77-2.29,2.11h4.26Z"/>
    <path class="cls-3" d="M28.29,393.77h1.12l.11,1.24h.04c.56-.86,1.37-1.41,2.27-1.41.35,0,.6.04.85.14l-.25,1.01c-.27-.07-.45-.11-.77-.11-.67,0-1.48.42-2.02,1.57v4.37h-1.35v-6.81Z"/>
    <path class="cls-3" d="M37.02,391.62c0-.45.41-.74.93-.74s.93.29.93.74-.41.74-.93.74-.93-.31-.93-.74ZM37.27,393.77h1.35v6.81h-1.35v-6.81Z"/>
    <path class="cls-3" d="M41.31,393.77h1.12l.11.98h.04c.76-.64,1.58-1.15,2.68-1.15,1.68,0,2.44.93,2.44,2.66v4.31h-1.35v-4.17c0-1.27-.45-1.81-1.51-1.81-.82,0-1.38.36-2.18,1.05v4.93h-1.35v-6.81Z"/>
    <path class="cls-3" d="M50.52,398.47v-3.76h-1.19v-.87l1.25-.07.16-1.91h1.13v1.91h2.16v.94h-2.16v3.79c0,.83.31,1.31,1.23,1.31.28,0,.65-.09.91-.18l.26.87c-.45.13-.98.25-1.48.25-1.7,0-2.27-.92-2.27-2.27Z"/>
    <path class="cls-3" d="M55.24,397.18c0-2.22,1.75-3.58,3.59-3.58,2.04,0,3.19,1.25,3.19,3.2,0,.24-.02.49-.06.65h-5.37c.1,1.44,1.13,2.38,2.65,2.38.77,0,1.4-.21,1.99-.54l.48.76c-.7.39-1.55.71-2.64.71-2.13,0-3.82-1.33-3.82-3.56ZM60.82,396.62c0-1.36-.72-2.11-1.97-2.11-1.12,0-2.12.77-2.29,2.11h4.26Z"/>
    <path class="cls-3" d="M63.98,393.77h1.12l.11,1.24h.04c.56-.86,1.37-1.41,2.27-1.41.35,0,.6.04.85.14l-.25,1.01c-.27-.07-.45-.11-.77-.11-.67,0-1.48.42-2.02,1.57v4.37h-1.35v-6.81Z"/>
    <path class="cls-3" d="M68.81,393.83l1.14-.07h2.98v.94h-4.12v-.87ZM69.89,392.69c0-1.38.74-2.26,2.34-2.26.49,0,.96.1,1.33.23l-.29.88c-.3-.12-.62-.18-.9-.18-.75,0-1.12.45-1.12,1.33v7.88h-1.35v-7.88Z"/>
    <path class="cls-3" d="M73.97,398.81c0-1.48,1.5-2.23,4.9-2.54,0-.88-.34-1.72-1.65-1.72-.92,0-1.75.37-2.38.73l-.53-.79c.73-.41,1.85-.89,3.13-.89,1.95,0,2.77,1.1,2.77,2.8v4.18h-1.12l-.11-.81h-.04c-.76.54-1.65.98-2.64.98-1.34,0-2.34-.71-2.34-1.94ZM78.87,398.91v-1.89c-2.67.27-3.58.83-3.58,1.7,0,.77.62,1.09,1.4,1.09s1.41-.32,2.18-.9Z"/>
    <path class="cls-3" d="M82.14,397.18c0-2.27,1.8-3.58,3.84-3.58,1.05,0,1.77.37,2.33.8l-.69.76c-.46-.36-.96-.6-1.58-.6-1.44,0-2.5,1.06-2.5,2.62s1,2.6,2.47,2.6c.73,0,1.38-.3,1.87-.68l.59.77c-.72.54-1.62.87-2.58.87-2.12,0-3.74-1.31-3.74-3.56Z"/>
    <path class="cls-3" d="M89.63,397.18c0-2.22,1.75-3.58,3.59-3.58,2.04,0,3.19,1.25,3.19,3.2,0,.24-.02.49-.06.65h-5.37c.1,1.44,1.13,2.38,2.65,2.38.77,0,1.4-.21,1.99-.54l.48.76c-.7.39-1.55.71-2.64.71-2.13,0-3.82-1.33-3.82-3.56ZM95.21,396.62c0-1.36-.72-2.11-1.97-2.11-1.12,0-2.12.77-2.29,2.11h4.26Z"/>
    <path class="cls-3" d="M101.64,396.68c0-2.46.81-4.48,2.17-6.36l.84.33c-1.27,1.79-1.88,3.9-1.88,6.03s.62,4.24,1.88,6.03l-.84.33c-1.36-1.88-2.17-3.9-2.17-6.36Z"/>
    <path class="cls-3" d="M106.7,396.78v-5.4h1.37v5.43c0,2.21,1.09,2.9,2.5,2.9s2.56-.69,2.56-2.9v-5.43h1.31v5.4c0,2.95-1.67,3.96-3.87,3.96s-3.87-1.01-3.87-3.96Z"/>
    <path class="cls-3" d="M117.33,391.38h1.37v9.19h-1.37v-9.19Z"/>
    <path class="cls-3" d="M120.8,402.71c1.27-1.79,1.88-3.9,1.88-6.03s-.62-4.24-1.88-6.03l.84-.33c1.36,1.88,2.17,3.9,2.17,6.36s-.81,4.48-2.17,6.36l-.84-.33Z"/>
    <path class="cls-3" d="M129.21,397.18c0-2.21,1.63-3.58,3.45-3.58.93,0,1.54.3,2.24.79l-.06-1.17v-2.62h1.35v9.98h-1.12l-.11-.8h-.04c-.62.53-1.47.97-2.42.97-1.99,0-3.29-1.29-3.29-3.56ZM134.84,398.84v-3.57c-.68-.52-1.29-.71-1.95-.71-1.28,0-2.29,1.05-2.29,2.6,0,1.63.79,2.6,2.19,2.6.74,0,1.38-.31,2.05-.93Z"/>
    <path class="cls-3" d="M138.29,397.18c0-2.22,1.75-3.58,3.59-3.58,2.04,0,3.19,1.25,3.19,3.2,0,.24-.02.49-.06.65h-5.37c.1,1.44,1.13,2.38,2.65,2.38.77,0,1.4-.21,1.99-.54l.48.76c-.7.39-1.55.71-2.64.71-2.13,0-3.82-1.33-3.82-3.56ZM143.87,396.62c0-1.36-.72-2.11-1.97-2.11-1.12,0-2.12.77-2.29,2.11h4.26Z"/>
    <path class="cls-3" d="M146.14,399.8l.67-.76c.69.48,1.4.81,2.36.81,1.05,0,1.57-.48,1.57-1.06,0-.7-.94-1.01-1.83-1.29-1.12-.35-2.38-.82-2.38-1.97s1.02-1.93,2.75-1.93c.99,0,1.86.35,2.48.77l-.65.74c-.55-.35-1.11-.61-1.82-.61-1.01,0-1.47.46-1.47.98,0,.65.87.89,1.77,1.18,1.15.37,2.43.77,2.43,2.07,0,1.1-1.03,2.02-2.91,2.02-1.13,0-2.23-.41-2.98-.95Z"/>
    <path class="cls-3" d="M153.66,391.62c0-.45.41-.74.93-.74s.93.29.93.74-.41.74-.93.74-.93-.31-.93-.74ZM153.91,393.77h1.35v6.81h-1.35v-6.81Z"/>
    <path class="cls-3" d="M157.34,401.88c0-.58.44-1.13,1.17-1.54v-.06c-.41-.22-.71-.58-.71-1.12,0-.57.47-1.02.88-1.26v-.06c-.53-.35-1.03-1.02-1.03-1.83,0-1.49,1.38-2.43,2.99-2.43.44,0,.84.07,1.13.17h2.78v.89h-1.64c.38.31.65.82.65,1.4,0,1.46-1.29,2.36-2.92,2.36-.39,0-.83-.08-1.19-.23-.29.21-.51.43-.51.8,0,.43.33.74,1.4.74h1.55c1.85,0,2.79.5,2.79,1.63,0,1.26-1.57,2.35-4.03,2.35-1.96,0-3.3-.65-3.3-1.83ZM163.35,401.53c0-.63-.56-.84-1.61-.84h-1.38c-.3,0-.68-.03-1.04-.1-.57.35-.81.75-.81,1.14,0,.73.86,1.19,2.31,1.19,1.52,0,2.52-.68,2.52-1.39ZM162.33,396.02c0-.99-.76-1.59-1.7-1.59s-1.7.59-1.7,1.59.78,1.62,1.7,1.62,1.7-.63,1.7-1.62Z"/>
    <path class="cls-3" d="M166.22,393.77h1.12l.11.98h.04c.76-.64,1.58-1.15,2.68-1.15,1.68,0,2.44.93,2.44,2.66v4.31h-1.35v-4.17c0-1.27-.45-1.81-1.51-1.81-.82,0-1.38.36-2.18,1.05v4.93h-1.35v-6.81Z"/>
    <path class="cls-3" d="M174.62,402.28c.93-.35,1.48-.97,1.48-1.74l-.15-1.03.66.84c-.18.19-.43.24-.68.24-.52,0-.98-.28-.98-.8s.46-.8,1-.8c.72,0,1.15.51,1.15,1.35,0,1.21-.83,2.15-2.15,2.62l-.33-.68Z"/>
    <path class="cls-3" d="M182.07,398.81c0-1.48,1.5-2.23,4.9-2.54,0-.88-.34-1.72-1.65-1.72-.92,0-1.75.37-2.38.73l-.53-.79c.73-.41,1.85-.89,3.13-.89,1.95,0,2.77,1.1,2.77,2.8v4.18h-1.12l-.11-.81h-.04c-.76.54-1.65.98-2.64.98-1.34,0-2.34-.71-2.34-1.94ZM186.97,398.91v-1.89c-2.67.27-3.58.83-3.58,1.7,0,.77.62,1.09,1.4,1.09s1.41-.32,2.18-.9Z"/>
    <path class="cls-3" d="M190.84,393.77h1.12l.11.98h.04c.76-.64,1.58-1.15,2.68-1.15,1.68,0,2.44.93,2.44,2.66v4.31h-1.35v-4.17c0-1.27-.45-1.81-1.51-1.81-.82,0-1.38.36-2.18,1.05v4.93h-1.35v-6.81Z"/>
    <path class="cls-3" d="M199.25,397.18c0-2.21,1.63-3.58,3.45-3.58.93,0,1.54.3,2.24.79l-.06-1.17v-2.62h1.35v9.98h-1.12l-.11-.8h-.04c-.62.53-1.47.97-2.42.97-1.99,0-3.29-1.29-3.29-3.56ZM204.88,398.84v-3.57c-.68-.52-1.29-.71-1.95-.71-1.28,0-2.29,1.05-2.29,2.6,0,1.63.79,2.6,2.19,2.6.74,0,1.38-.31,2.05-.93Z"/>
    <path class="cls-3" d="M211.71,398.81c0-1.48,1.5-2.23,4.9-2.54,0-.88-.34-1.72-1.65-1.72-.92,0-1.75.37-2.38.73l-.53-.79c.73-.41,1.85-.89,3.13-.89,1.95,0,2.77,1.1,2.77,2.8v4.18h-1.12l-.11-.81h-.04c-.76.54-1.65.98-2.64.98-1.34,0-2.34-.71-2.34-1.94ZM216.61,398.91v-1.89c-2.67.27-3.58.83-3.58,1.7,0,.77.62,1.09,1.4,1.09s1.41-.32,2.18-.9Z"/>
    <path class="cls-3" d="M219.87,401.88c0-.58.44-1.13,1.17-1.54v-.06c-.41-.22-.71-.58-.71-1.12,0-.57.46-1.02.88-1.26v-.06c-.53-.35-1.03-1.02-1.03-1.83,0-1.49,1.38-2.43,3-2.43.44,0,.84.07,1.13.17h2.78v.89h-1.64c.38.31.65.82.65,1.4,0,1.46-1.29,2.36-2.92,2.36-.39,0-.83-.08-1.19-.23-.29.21-.51.43-.51.8,0,.43.33.74,1.4.74h1.55c1.86,0,2.79.5,2.79,1.63,0,1.26-1.57,2.35-4.04,2.35-1.95,0-3.3-.65-3.3-1.83ZM225.89,401.53c0-.63-.56-.84-1.61-.84h-1.38c-.3,0-.68-.03-1.04-.1-.57.35-.81.75-.81,1.14,0,.73.86,1.19,2.31,1.19,1.52,0,2.52-.68,2.52-1.39ZM224.87,396.02c0-.99-.76-1.59-1.7-1.59s-1.7.59-1.7,1.59.78,1.62,1.7,1.62,1.7-.63,1.7-1.62Z"/>
    <path class="cls-3" d="M228.51,391.62c0-.45.41-.74.93-.74s.93.29.93.74-.41.74-.93.74-.93-.31-.93-.74ZM228.75,393.77h1.35v6.81h-1.35v-6.81Z"/>
    <path class="cls-3" d="M232.79,399.21v-8.61h1.35v8.7c0,.35.18.49.38.49.08,0,.14,0,.29-.03l.18.88c-.19.06-.42.11-.78.11-1.01,0-1.43-.55-1.43-1.54Z"/>
    <path class="cls-3" d="M236.38,397.18c0-2.22,1.75-3.58,3.59-3.58,2.04,0,3.18,1.25,3.18,3.2,0,.24-.02.49-.06.65h-5.37c.1,1.44,1.13,2.38,2.65,2.38.77,0,1.39-.21,1.99-.54l.48.76c-.7.39-1.55.71-2.64.71-2.13,0-3.82-1.33-3.82-3.56ZM241.96,396.62c0-1.36-.72-2.11-1.97-2.11-1.12,0-2.12.77-2.29,2.11h4.26Z"/>
    <path class="cls-3" d="M247.83,397.18c0-2.21,1.63-3.58,3.45-3.58.93,0,1.54.3,2.24.79l-.06-1.17v-2.62h1.35v9.98h-1.12l-.11-.8h-.04c-.62.53-1.47.97-2.42.97-1.99,0-3.29-1.29-3.29-3.56ZM253.46,398.84v-3.57c-.68-.52-1.29-.71-1.95-.71-1.28,0-2.29,1.05-2.29,2.6,0,1.63.79,2.6,2.19,2.6.74,0,1.38-.31,2.05-.93Z"/>
    <path class="cls-3" d="M256.92,397.18c0-2.22,1.75-3.58,3.59-3.58,2.04,0,3.18,1.25,3.18,3.2,0,.24-.02.49-.06.65h-5.37c.1,1.44,1.13,2.38,2.65,2.38.77,0,1.39-.21,1.99-.54l.48.76c-.7.39-1.55.71-2.64.71-2.13,0-3.82-1.33-3.82-3.56ZM262.5,396.62c0-1.36-.72-2.11-1.97-2.11-1.12,0-2.12.77-2.29,2.11h4.26Z"/>
    <path class="cls-3" d="M264.5,393.77h1.39l1.51,3.87c.24.67.5,1.36.74,2.01h.07c.24-.65.5-1.34.74-2.01l1.51-3.87h1.32l-2.82,6.81h-1.57l-2.88-6.81Z"/>
    <path class="cls-3" d="M272.72,397.18c0-2.22,1.75-3.58,3.59-3.58,2.04,0,3.18,1.25,3.18,3.2,0,.24-.02.49-.06.65h-5.37c.1,1.44,1.13,2.38,2.65,2.38.77,0,1.39-.21,1.99-.54l.48.76c-.7.39-1.55.71-2.64.71-2.13,0-3.82-1.33-3.82-3.56ZM278.3,396.62c0-1.36-.72-2.11-1.97-2.11-1.12,0-2.12.77-2.29,2.11h4.26Z"/>
    <path class="cls-3" d="M281.46,399.21v-8.61h1.35v8.7c0,.35.18.49.38.49.08,0,.14,0,.29-.03l.18.88c-.19.06-.42.11-.78.11-1.01,0-1.43-.55-1.43-1.54Z"/>
    <path class="cls-3" d="M285.05,397.18c0-2.27,1.74-3.58,3.7-3.58s3.7,1.31,3.7,3.58-1.74,3.56-3.7,3.56-3.7-1.31-3.7-3.56ZM291.05,397.18c0-1.56-.93-2.62-2.3-2.62s-2.3,1.06-2.3,2.62.93,2.6,2.3,2.6,2.3-1.04,2.3-2.6Z"/>
    <path class="cls-3" d="M294.54,393.77h1.12l.11.79h.04c.72-.51,1.62-.95,2.54-.95,2.06,0,3.17,1.37,3.17,3.47,0,2.32-1.63,3.68-3.46,3.68-.73,0-1.48-.29-2.21-.79l.04,1.19v2.31h-1.35v-9.68ZM300.13,397.08c0-1.5-.6-2.51-2.1-2.51-.68,0-1.36.32-2.13.93v3.57c.72.52,1.42.71,1.94.71,1.32,0,2.29-1.01,2.29-2.7Z"/>
    <path class="cls-3" d="M303.65,393.77h1.12l.11.99h.04c.7-.64,1.53-1.16,2.48-1.16,1.22,0,1.88.5,2.2,1.3.83-.77,1.66-1.3,2.63-1.3,1.64,0,2.43.93,2.43,2.66v4.31h-1.35v-4.17c0-1.27-.47-1.81-1.48-1.81-.62,0-1.26.34-2,1.05v4.93h-1.35v-4.17c0-1.27-.47-1.81-1.49-1.81-.6,0-1.26.34-2,1.05v4.93h-1.35v-6.81Z"/>
    <path class="cls-3" d="M316.66,397.18c0-2.22,1.75-3.58,3.59-3.58,2.04,0,3.19,1.25,3.19,3.2,0,.24-.02.49-.06.65h-5.37c.1,1.44,1.13,2.38,2.65,2.38.77,0,1.4-.21,1.99-.54l.48.76c-.7.39-1.55.71-2.64.71-2.13,0-3.82-1.33-3.82-3.56ZM322.24,396.62c0-1.36-.72-2.11-1.97-2.11-1.12,0-2.12.77-2.29,2.11h4.26Z"/>
    <path class="cls-3" d="M325.4,393.77h1.12l.11.98h.04c.76-.64,1.58-1.15,2.68-1.15,1.68,0,2.44.93,2.44,2.66v4.31h-1.35v-4.17c0-1.27-.45-1.81-1.51-1.81-.82,0-1.38.36-2.18,1.05v4.93h-1.35v-6.81Z"/>
    <path class="cls-3" d="M334.61,398.47v-3.76h-1.19v-.87l1.25-.07.16-1.91h1.13v1.91h2.16v.94h-2.16v3.79c0,.83.31,1.31,1.23,1.31.28,0,.65-.09.91-.18l.26.87c-.45.13-.98.25-1.48.25-1.7,0-2.27-.92-2.27-2.27Z"/>
    <path class="cls-3" d="M4.35,408.77h1.12l.11.99h.04c.7-.64,1.53-1.16,2.48-1.16,1.22,0,1.87.5,2.2,1.3.83-.77,1.66-1.3,2.63-1.3,1.64,0,2.43.93,2.43,2.66v4.31h-1.35v-4.17c0-1.27-.47-1.81-1.49-1.81-.62,0-1.26.34-2,1.05v4.93h-1.35v-4.17c0-1.27-.47-1.81-1.48-1.81-.6,0-1.26.34-2,1.05v4.93h-1.35v-6.81Z"/>
    <path class="cls-3" d="M17.36,412.18c0-2.22,1.75-3.58,3.59-3.58,2.04,0,3.19,1.25,3.19,3.2,0,.24-.02.49-.06.65h-5.37c.1,1.44,1.13,2.38,2.65,2.38.77,0,1.4-.21,1.99-.54l.48.76c-.7.39-1.55.71-2.64.71-2.13,0-3.82-1.33-3.82-3.56ZM22.94,411.62c0-1.36-.72-2.11-1.97-2.11-1.12,0-2.12.77-2.29,2.11h4.26Z"/>
    <path class="cls-3" d="M26.33,413.47v-3.76h-1.19v-.87l1.25-.07.16-1.91h1.13v1.91h2.16v.94h-2.16v3.79c0,.83.31,1.31,1.23,1.31.28,0,.65-.09.91-.18l.26.87c-.45.13-.98.25-1.48.25-1.7,0-2.27-.92-2.27-2.27Z"/>
    <path class="cls-3" d="M31.64,405.6h1.35v2.73l-.05,1.4c.74-.62,1.55-1.13,2.65-1.13,1.68,0,2.44.93,2.44,2.66v4.31h-1.35v-4.17c0-1.27-.45-1.81-1.51-1.81-.82,0-1.38.36-2.18,1.05v4.93h-1.35v-9.98Z"/>
    <path class="cls-3" d="M39.98,412.18c0-2.27,1.74-3.58,3.7-3.58s3.7,1.31,3.7,3.58-1.74,3.56-3.7,3.56-3.7-1.31-3.7-3.56ZM45.98,412.18c0-1.56-.93-2.62-2.3-2.62s-2.3,1.06-2.3,2.62.93,2.6,2.3,2.6,2.3-1.04,2.3-2.6Z"/>
    <path class="cls-3" d="M48.9,412.18c0-2.21,1.63-3.58,3.45-3.58.93,0,1.54.3,2.24.79l-.06-1.17v-2.62h1.35v9.98h-1.12l-.11-.8h-.04c-.62.53-1.47.97-2.42.97-1.99,0-3.29-1.29-3.29-3.56ZM54.53,413.84v-3.57c-.68-.52-1.29-.71-1.95-.71-1.28,0-2.29,1.05-2.29,2.6,0,1.63.79,2.6,2.19,2.6.74,0,1.38-.31,2.05-.93Z"/>
    <path class="cls-3" d="M57.98,412.18c0-2.27,1.74-3.58,3.7-3.58s3.7,1.31,3.7,3.58-1.74,3.56-3.7,3.56-3.7-1.31-3.7-3.56ZM63.98,412.18c0-1.56-.93-2.62-2.3-2.62s-2.3,1.06-2.3,2.62.93,2.6,2.3,2.6,2.3-1.04,2.3-2.6Z"/>
    <path class="cls-3" d="M67.47,414.21v-8.61h1.35v8.7c0,.35.18.49.38.49.08,0,.14,0,.3-.03l.18.88c-.19.06-.42.11-.78.11-1.01,0-1.43-.55-1.43-1.54Z"/>
    <path class="cls-3" d="M71.07,412.18c0-2.27,1.74-3.58,3.7-3.58s3.7,1.31,3.7,3.58-1.74,3.56-3.7,3.56-3.7-1.31-3.7-3.56ZM77.07,412.18c0-1.56-.93-2.62-2.3-2.62s-2.3,1.06-2.3,2.62.93,2.6,2.3,2.6,2.3-1.04,2.3-2.6Z"/>
    <path class="cls-3" d="M79.95,416.88c0-.58.44-1.13,1.17-1.54v-.06c-.41-.22-.71-.58-.71-1.12,0-.57.47-1.02.88-1.26v-.06c-.53-.35-1.03-1.02-1.03-1.83,0-1.49,1.38-2.43,2.99-2.43.44,0,.84.07,1.13.17h2.78v.89h-1.64c.38.31.65.82.65,1.4,0,1.46-1.29,2.36-2.92,2.36-.39,0-.83-.08-1.19-.23-.29.21-.51.43-.51.8,0,.43.33.74,1.4.74h1.55c1.85,0,2.79.5,2.79,1.63,0,1.26-1.57,2.35-4.04,2.35-1.95,0-3.3-.65-3.3-1.83ZM85.96,416.53c0-.63-.56-.84-1.61-.84h-1.38c-.3,0-.68-.03-1.04-.1-.57.35-.81.75-.81,1.14,0,.73.86,1.19,2.31,1.19,1.52,0,2.52-.68,2.52-1.39ZM84.94,411.02c0-.99-.76-1.59-1.7-1.59s-1.7.59-1.7,1.59.78,1.62,1.7,1.62,1.7-.63,1.7-1.62Z"/>
    <path class="cls-3" d="M88.58,406.62c0-.45.41-.74.93-.74s.93.29.93.74-.41.74-.93.74-.93-.31-.93-.74ZM88.83,408.77h1.35v6.81h-1.35v-6.81Z"/>
    <path class="cls-3" d="M92.27,412.18c0-2.22,1.75-3.58,3.59-3.58,2.04,0,3.19,1.25,3.19,3.2,0,.24-.02.49-.06.65h-5.37c.1,1.44,1.13,2.38,2.65,2.38.77,0,1.4-.21,1.99-.54l.48.76c-.7.39-1.55.71-2.64.71-2.13,0-3.82-1.33-3.82-3.56ZM97.85,411.62c0-1.36-.72-2.11-1.97-2.11-1.12,0-2.12.77-2.29,2.11h4.26Z"/>
    <path class="cls-3" d="M100.12,414.8l.67-.76c.69.48,1.4.81,2.36.81,1.05,0,1.57-.48,1.57-1.06,0-.7-.94-1.01-1.83-1.29-1.12-.35-2.38-.82-2.38-1.97s1.02-1.93,2.75-1.93c.99,0,1.86.35,2.48.77l-.65.74c-.55-.35-1.11-.61-1.82-.61-1.01,0-1.47.46-1.47.98,0,.65.87.89,1.77,1.18,1.15.37,2.43.77,2.43,2.07,0,1.1-1.03,2.02-2.91,2.02-1.13,0-2.23-.41-2.98-.95Z"/>
    <path class="cls-3" d="M107.6,414.87c0-.53.44-.89.98-.89s.98.36.98.89-.44.87-.98.87-.98-.36-.98-.87Z"/>
    <path class="cls-3" d="M114.28,406.38h1.42l1.13,5c.21.99.42,1.98.63,2.96h.07c.24-.99.5-1.98.76-2.96l1.5-5h1.24l1.5,5c.26.97.52,1.97.78,2.96h.07c.21-.99.4-1.99.61-2.96l1.13-5h1.32l-2.23,9.19h-1.65l-1.63-5.53c-.19-.72-.36-1.39-.52-2.09h-.07c-.17.71-.35,1.38-.54,2.09l-1.6,5.53h-1.62l-2.29-9.19Z"/>
    <path class="cls-3" d="M127.56,412.18c0-2.22,1.75-3.58,3.59-3.58,2.04,0,3.19,1.25,3.19,3.2,0,.24-.02.49-.06.65h-5.37c.1,1.44,1.13,2.38,2.65,2.38.77,0,1.4-.21,1.99-.54l.48.76c-.7.39-1.55.71-2.64.71-2.13,0-3.82-1.33-3.82-3.56ZM133.14,411.62c0-1.36-.72-2.11-1.97-2.11-1.12,0-2.12.77-2.29,2.11h4.26Z"/>
    <path class="cls-3" d="M139.08,413.81c0-1.48,1.5-2.23,4.9-2.54,0-.88-.34-1.72-1.65-1.72-.92,0-1.75.37-2.38.73l-.53-.79c.73-.41,1.85-.89,3.13-.89,1.95,0,2.77,1.1,2.77,2.8v4.18h-1.12l-.11-.81h-.04c-.76.54-1.65.98-2.64.98-1.34,0-2.34-.71-2.34-1.94ZM143.98,413.91v-1.89c-2.67.27-3.58.83-3.58,1.7,0,.77.62,1.09,1.4,1.09s1.41-.32,2.18-.9Z"/>
    <path class="cls-3" d="M147.85,408.77h1.12l.11,1.24h.04c.56-.86,1.37-1.41,2.27-1.41.35,0,.6.04.85.14l-.25,1.01c-.27-.07-.45-.11-.77-.11-.67,0-1.48.42-2.02,1.57v4.37h-1.35v-6.81Z"/>
    <path class="cls-3" d="M152.95,412.18c0-2.22,1.75-3.58,3.59-3.58,2.04,0,3.19,1.25,3.19,3.2,0,.24-.02.49-.06.65h-5.37c.1,1.44,1.13,2.38,2.65,2.38.77,0,1.4-.21,1.99-.54l.48.76c-.7.39-1.55.71-2.64.71-2.13,0-3.82-1.33-3.82-3.56ZM158.53,411.62c0-1.36-.72-2.11-1.97-2.11-1.12,0-2.12.77-2.29,2.11h4.26Z"/>
    <path class="cls-3" d="M164.97,408.77h1.12l.11.79h.04c.72-.51,1.62-.95,2.54-.95,2.06,0,3.16,1.37,3.16,3.47,0,2.32-1.63,3.68-3.46,3.68-.73,0-1.48-.29-2.21-.79l.04,1.19v2.31h-1.35v-9.68ZM170.56,412.08c0-1.5-.6-2.51-2.1-2.51-.68,0-1.36.32-2.13.93v3.57c.72.52,1.42.71,1.94.71,1.32,0,2.29-1.01,2.29-2.7Z"/>
    <path class="cls-3" d="M174.08,408.77h1.12l.11,1.24h.04c.56-.86,1.37-1.41,2.27-1.41.35,0,.6.04.85.14l-.25,1.01c-.27-.07-.45-.11-.77-.11-.67,0-1.48.42-2.02,1.57v4.37h-1.35v-6.81Z"/>
    <path class="cls-3" d="M179.18,412.18c0-2.27,1.74-3.58,3.7-3.58s3.7,1.31,3.7,3.58-1.74,3.56-3.7,3.56-3.7-1.31-3.7-3.56ZM185.18,412.18c0-1.56-.93-2.62-2.3-2.62s-2.3,1.06-2.3,2.62.93,2.6,2.3,2.6,2.3-1.04,2.3-2.6Z"/>
    <path class="cls-3" d="M187.52,408.77h1.39l1.51,3.87c.24.67.5,1.36.74,2.01h.07c.24-.65.5-1.34.74-2.01l1.51-3.87h1.32l-2.82,6.81h-1.57l-2.88-6.81Z"/>
    <path class="cls-3" d="M195.74,412.18c0-2.22,1.75-3.58,3.59-3.58,2.04,0,3.19,1.25,3.19,3.2,0,.24-.02.49-.06.65h-5.37c.1,1.44,1.13,2.38,2.65,2.38.77,0,1.4-.21,1.99-.54l.48.76c-.7.39-1.55.71-2.64.71-2.13,0-3.82-1.33-3.82-3.56ZM201.32,411.62c0-1.36-.72-2.11-1.97-2.11-1.12,0-2.12.77-2.29,2.11h4.26Z"/>
    <path class="cls-3" d="M204.48,408.77h1.12l.11.98h.04c.76-.64,1.58-1.15,2.68-1.15,1.68,0,2.44.93,2.44,2.66v4.31h-1.35v-4.17c0-1.27-.45-1.81-1.51-1.81-.82,0-1.38.36-2.18,1.05v4.93h-1.35v-6.81Z"/>
    <path class="cls-3" d="M216.74,414.21v-8.61h1.35v8.7c0,.35.18.49.38.49.08,0,.14,0,.29-.03l.18.88c-.19.06-.42.11-.78.11-1.01,0-1.43-.55-1.43-1.54Z"/>
    <path class="cls-3" d="M220.33,412.18c0-2.22,1.75-3.58,3.59-3.58,2.04,0,3.18,1.25,3.18,3.2,0,.24-.02.49-.06.65h-5.37c.1,1.44,1.13,2.38,2.65,2.38.77,0,1.39-.21,1.99-.54l.48.76c-.7.39-1.55.71-2.64.71-2.13,0-3.82-1.33-3.82-3.56ZM225.91,411.62c0-1.36-.72-2.11-1.97-2.11-1.12,0-2.12.77-2.29,2.11h4.26Z"/>
    <path class="cls-3" d="M228.57,413.81c0-1.48,1.5-2.23,4.9-2.54,0-.88-.34-1.72-1.65-1.72-.92,0-1.75.37-2.38.73l-.53-.79c.73-.41,1.85-.89,3.13-.89,1.95,0,2.77,1.1,2.77,2.8v4.18h-1.12l-.11-.81h-.04c-.76.54-1.65.98-2.64.98-1.34,0-2.34-.71-2.34-1.94ZM233.47,413.91v-1.89c-2.67.27-3.58.83-3.58,1.7,0,.77.62,1.09,1.4,1.09s1.41-.32,2.18-.9Z"/>
    <path class="cls-3" d="M236.77,412.18c0-2.21,1.63-3.58,3.45-3.58.93,0,1.54.3,2.24.79l-.06-1.17v-2.62h1.35v9.98h-1.12l-.11-.8h-.04c-.62.53-1.47.97-2.42.97-1.99,0-3.29-1.29-3.29-3.56ZM242.4,413.84v-3.57c-.68-.52-1.29-.71-1.95-.71-1.28,0-2.29,1.05-2.29,2.6,0,1.63.79,2.6,2.19,2.6.74,0,1.38-.31,2.05-.93Z"/>
    <path class="cls-3" d="M245.85,412.18c0-2.22,1.75-3.58,3.59-3.58,2.04,0,3.18,1.25,3.18,3.2,0,.24-.02.49-.06.65h-5.37c.1,1.44,1.13,2.38,2.65,2.38.77,0,1.39-.21,1.99-.54l.48.76c-.7.39-1.55.71-2.64.71-2.13,0-3.82-1.33-3.82-3.56ZM251.43,411.62c0-1.36-.72-2.11-1.97-2.11-1.12,0-2.12.77-2.29,2.11h4.26Z"/>
    <path class="cls-3" d="M254.59,408.77h1.12l.11,1.24h.04c.56-.86,1.37-1.41,2.27-1.41.35,0,.6.04.85.14l-.25,1.01c-.28-.07-.46-.11-.77-.11-.67,0-1.48.42-2.02,1.57v4.37h-1.35v-6.81Z"/>
    <path class="cls-3" d="M259.4,414.8l.67-.76c.69.48,1.4.81,2.36.81,1.05,0,1.57-.48,1.57-1.06,0-.7-.94-1.01-1.83-1.29-1.12-.35-2.38-.82-2.38-1.97s1.02-1.93,2.75-1.93c.99,0,1.86.35,2.48.77l-.65.74c-.55-.35-1.11-.61-1.82-.61-1,0-1.47.46-1.47.98,0,.65.87.89,1.77,1.18,1.15.37,2.43.77,2.43,2.07,0,1.1-1.03,2.02-2.91,2.02-1.13,0-2.23-.41-2.98-.95Z"/>
    <path class="cls-3" d="M270.2,406.62c0-.45.41-.74.93-.74s.93.29.93.74-.41.74-.93.74-.93-.31-.93-.74ZM270.44,408.77h1.35v6.81h-1.35v-6.81Z"/>
    <path class="cls-3" d="M274.48,408.77h1.12l.11.98h.04c.76-.64,1.58-1.15,2.68-1.15,1.68,0,2.44.93,2.44,2.66v4.31h-1.35v-4.17c0-1.27-.45-1.81-1.51-1.81-.82,0-1.38.36-2.18,1.05v4.93h-1.35v-6.81Z"/>
    <path class="cls-3" d="M3.46,429.8l.67-.76c.69.48,1.4.81,2.36.81,1.05,0,1.57-.48,1.57-1.06,0-.7-.94-1.01-1.83-1.29-1.12-.35-2.38-.82-2.38-1.97s1.02-1.93,2.75-1.93c.99,0,1.86.35,2.48.77l-.65.74c-.55-.35-1.11-.61-1.82-.61-1.01,0-1.47.46-1.47.98,0,.65.87.89,1.77,1.18,1.15.37,2.43.77,2.43,2.07,0,1.1-1.03,2.02-2.91,2.02-1.13,0-2.23-.41-2.98-.95Z"/>
    <path class="cls-3" d="M10.63,427.18c0-2.27,1.74-3.58,3.7-3.58s3.7,1.31,3.7,3.58-1.74,3.56-3.7,3.56-3.7-1.31-3.7-3.56ZM16.63,427.18c0-1.56-.93-2.62-2.3-2.62s-2.3,1.06-2.3,2.62.93,2.6,2.3,2.6,2.3-1.04,2.3-2.6Z"/>
    <path class="cls-3" d="M24.56,428.47v-3.76h-5.3v-.87l1.14-.07h4.21l.16-1.91h1.13v1.91h2.16v.94h-2.16v3.79c0,.83.31,1.31,1.23,1.31.28,0,.65-.09.91-.18l.26.87c-.45.13-.98.25-1.48.25-1.7,0-2.27-.92-2.27-2.27ZM20.34,422.69c0-1.38.74-2.26,2.34-2.26.49,0,.96.1,1.33.23l-.29.88c-.3-.12-.62-.18-.9-.18-.75,0-1.12.45-1.12,1.33v7.88h-1.35v-7.88Z"/>
    <path class="cls-3" d="M28.92,423.77h1.38l1.18,3.93c.17.65.32,1.26.47,1.9h.07c.17-.64.35-1.26.54-1.9l1.23-3.93h1.32l1.24,3.93c.2.65.37,1.26.55,1.9h.07c.17-.64.32-1.25.49-1.9l1.16-3.93h1.29l-2.14,6.81h-1.64l-1.15-3.66c-.19-.64-.35-1.27-.54-1.96h-.07c-.17.69-.33,1.34-.55,1.98l-1.12,3.64h-1.58l-2.22-6.81Z"/>
    <path class="cls-3" d="M41.16,428.81c0-1.48,1.5-2.23,4.9-2.54,0-.88-.34-1.72-1.65-1.72-.92,0-1.75.37-2.38.73l-.53-.79c.73-.41,1.85-.89,3.13-.89,1.95,0,2.77,1.1,2.77,2.8v4.18h-1.12l-.11-.81h-.04c-.76.54-1.65.98-2.64.98-1.34,0-2.34-.71-2.34-1.94ZM46.06,428.91v-1.89c-2.67.27-3.58.83-3.58,1.7,0,.77.62,1.09,1.4,1.09s1.41-.32,2.18-.9Z"/>
    <path class="cls-3" d="M49.93,423.77h1.12l.11,1.24h.04c.56-.86,1.37-1.41,2.27-1.41.35,0,.6.04.85.14l-.25,1.01c-.27-.07-.45-.11-.77-.11-.67,0-1.48.42-2.02,1.57v4.37h-1.35v-6.81Z"/>
    <path class="cls-3" d="M55.03,427.18c0-2.22,1.75-3.58,3.59-3.58,2.04,0,3.19,1.25,3.19,3.2,0,.24-.02.49-.06.65h-5.37c.1,1.44,1.13,2.38,2.65,2.38.77,0,1.4-.21,1.99-.54l.48.76c-.7.39-1.55.71-2.64.71-2.13,0-3.82-1.33-3.82-3.56ZM60.61,426.62c0-1.36-.72-2.11-1.97-2.11-1.12,0-2.12.77-2.29,2.11h4.26Z"/>
    <path class="cls-3" d="M68.3,429.87h-.04l-.13.7h-1.08v-9.98h1.35v2.73l-.04,1.22c.73-.54,1.62-.95,2.51-.95,2.06,0,3.17,1.37,3.17,3.46,0,2.33-1.63,3.68-3.46,3.68-.74,0-1.57-.33-2.28-.87ZM72.63,427.08c0-1.5-.6-2.51-2.1-2.51-.68,0-1.38.32-2.13.93v3.57c.7.52,1.42.71,1.94.71,1.32,0,2.29-1.01,2.29-2.7Z"/>
    <path class="cls-3" d="M75.53,427.18c0-2.22,1.75-3.58,3.59-3.58,2.04,0,3.19,1.25,3.19,3.2,0,.24-.02.49-.06.65h-5.37c.1,1.44,1.13,2.38,2.65,2.38.77,0,1.4-.21,1.99-.54l.48.76c-.7.39-1.55.71-2.64.71-2.13,0-3.82-1.33-3.82-3.56ZM81.11,426.62c0-1.36-.72-2.11-1.97-2.11-1.12,0-2.12.77-2.29,2.11h4.26Z"/>
    <path class="cls-3" d="M83.38,429.8l.67-.76c.69.48,1.4.81,2.36.81,1.05,0,1.57-.48,1.57-1.06,0-.7-.94-1.01-1.83-1.29-1.12-.35-2.38-.82-2.38-1.97s1.02-1.93,2.75-1.93c.99,0,1.86.35,2.48.77l-.65.74c-.55-.35-1.11-.61-1.82-.61-1.01,0-1.47.46-1.47.98,0,.65.87.89,1.77,1.18,1.15.37,2.43.77,2.43,2.07,0,1.1-1.03,2.02-2.91,2.02-1.13,0-2.23-.41-2.98-.95Z"/>
    <path class="cls-3" d="M91.38,428.47v-3.76h-1.19v-.87l1.25-.07.16-1.91h1.13v1.91h2.16v.94h-2.16v3.79c0,.83.31,1.31,1.23,1.31.28,0,.65-.09.91-.18l.26.87c-.45.13-.98.25-1.48.25-1.7,0-2.27-.92-2.27-2.27Z"/>
    <path class="cls-3" d="M99.97,423.77h1.12l.11.79h.04c.72-.51,1.62-.95,2.54-.95,2.06,0,3.16,1.37,3.16,3.47,0,2.32-1.63,3.68-3.46,3.68-.73,0-1.48-.29-2.21-.79l.04,1.19v2.31h-1.35v-9.68ZM105.56,427.08c0-1.5-.6-2.51-2.1-2.51-.68,0-1.36.32-2.13.93v3.57c.72.52,1.42.71,1.94.71,1.32,0,2.29-1.01,2.29-2.7Z"/>
    <path class="cls-3" d="M109.08,423.77h1.12l.11,1.24h.04c.56-.86,1.37-1.41,2.27-1.41.35,0,.6.04.85.14l-.25,1.01c-.27-.07-.45-.11-.77-.11-.67,0-1.48.42-2.02,1.57v4.37h-1.35v-6.81Z"/>
    <path class="cls-3" d="M114.28,428.81c0-1.48,1.5-2.23,4.9-2.54,0-.88-.34-1.72-1.65-1.72-.92,0-1.75.37-2.38.73l-.53-.79c.73-.41,1.85-.89,3.13-.89,1.95,0,2.77,1.1,2.77,2.8v4.18h-1.12l-.11-.81h-.04c-.76.54-1.65.98-2.64.98-1.34,0-2.34-.71-2.34-1.94ZM119.18,428.91v-1.89c-2.67.27-3.58.83-3.58,1.7,0,.77.62,1.09,1.4,1.09s1.41-.32,2.18-.9Z"/>
    <path class="cls-3" d="M122.46,427.18c0-2.27,1.8-3.58,3.84-3.58,1.05,0,1.77.37,2.33.8l-.69.76c-.46-.36-.96-.6-1.58-.6-1.44,0-2.5,1.06-2.5,2.62s1,2.6,2.47,2.6c.73,0,1.38-.3,1.87-.68l.59.77c-.72.54-1.62.87-2.58.87-2.12,0-3.74-1.31-3.74-3.56Z"/>
    <path class="cls-3" d="M130.77,428.47v-3.76h-1.19v-.87l1.25-.07.16-1.91h1.13v1.91h2.16v.94h-2.16v3.79c0,.83.31,1.31,1.23,1.31.28,0,.65-.09.91-.18l.26.87c-.45.13-.98.25-1.48.25-1.7,0-2.27-.92-2.27-2.27Z"/>
    <path class="cls-3" d="M135.83,421.62c0-.45.41-.74.93-.74s.93.29.93.74-.41.74-.93.74-.93-.31-.93-.74ZM136.08,423.77h1.35v6.81h-1.35v-6.81Z"/>
    <path class="cls-3" d="M139.53,427.18c0-2.27,1.8-3.58,3.84-3.58,1.05,0,1.77.37,2.33.8l-.69.76c-.46-.36-.96-.6-1.58-.6-1.44,0-2.5,1.06-2.5,2.62s1,2.6,2.47,2.6c.73,0,1.38-.3,1.87-.68l.59.77c-.72.54-1.62.87-2.58.87-2.12,0-3.74-1.31-3.74-3.56Z"/>
    <path class="cls-3" d="M147.01,427.18c0-2.22,1.75-3.58,3.59-3.58,2.04,0,3.19,1.25,3.19,3.2,0,.24-.02.49-.06.65h-5.37c.1,1.44,1.13,2.38,2.65,2.38.77,0,1.4-.21,1.99-.54l.48.76c-.7.39-1.55.71-2.64.71-2.13,0-3.82-1.33-3.82-3.56ZM152.59,426.62c0-1.36-.72-2.11-1.97-2.11-1.12,0-2.12.77-2.29,2.11h4.26Z"/>
    <path class="cls-3" d="M154.86,429.8l.67-.76c.69.48,1.4.81,2.36.81,1.05,0,1.57-.48,1.57-1.06,0-.7-.94-1.01-1.83-1.29-1.12-.35-2.38-.82-2.38-1.97s1.02-1.93,2.75-1.93c.99,0,1.86.35,2.48.77l-.65.74c-.55-.35-1.11-.61-1.82-.61-1.01,0-1.47.46-1.47.98,0,.65.87.89,1.77,1.18,1.15.37,2.43.77,2.43,2.07,0,1.1-1.03,2.02-2.91,2.02-1.13,0-2.23-.41-2.98-.95Z"/>
    <path class="cls-3" d="M164.95,423.77h1.38l1.18,3.93c.17.65.32,1.26.47,1.9h.07c.17-.64.35-1.26.54-1.9l1.23-3.93h1.32l1.24,3.93c.2.65.37,1.26.55,1.9h.07c.17-.64.32-1.25.49-1.9l1.16-3.93h1.29l-2.14,6.81h-1.64l-1.15-3.66c-.19-.64-.35-1.27-.54-1.96h-.07c-.17.69-.33,1.34-.55,1.98l-1.12,3.64h-1.58l-2.22-6.81Z"/>
    <path class="cls-3" d="M177.44,421.62c0-.45.41-.74.93-.74s.93.29.93.74-.41.74-.93.74-.93-.31-.93-.74ZM177.69,423.77h1.35v6.81h-1.35v-6.81Z"/>
    <path class="cls-3" d="M181.96,428.47v-3.76h-1.19v-.87l1.25-.07.16-1.91h1.13v1.91h2.16v.94h-2.16v3.79c0,.83.31,1.31,1.23,1.31.28,0,.65-.09.91-.18l.26.87c-.45.13-.98.25-1.48.25-1.7,0-2.27-.92-2.27-2.27Z"/>
    <path class="cls-3" d="M187.28,420.6h1.35v2.73l-.05,1.4c.74-.62,1.55-1.13,2.65-1.13,1.68,0,2.44.93,2.44,2.66v4.31h-1.35v-4.17c0-1.27-.45-1.81-1.51-1.81-.82,0-1.38.36-2.18,1.05v4.93h-1.35v-9.98Z"/>
    <path class="cls-3" d="M198.99,428.81c0-1.48,1.5-2.23,4.9-2.54,0-.88-.34-1.72-1.65-1.72-.92,0-1.75.37-2.38.73l-.53-.79c.73-.41,1.85-.89,3.13-.89,1.95,0,2.77,1.1,2.77,2.8v4.18h-1.12l-.11-.81h-.04c-.76.54-1.65.98-2.64.98-1.34,0-2.34-.71-2.34-1.94ZM203.89,428.91v-1.89c-2.67.27-3.58.83-3.58,1.7,0,.77.62,1.09,1.4,1.09s1.41-.32,2.18-.9Z"/>
    <path class="cls-3" d="M211.28,428.47v-3.76h-1.19v-.87l1.25-.07.16-1.91h1.13v1.91h2.16v.94h-2.16v3.79c0,.83.31,1.31,1.23,1.31.28,0,.65-.09.91-.18l.26.87c-.45.13-.98.25-1.48.25-1.7,0-2.27-.92-2.27-2.27Z"/>
    <path class="cls-3" d="M216.59,423.77h1.12l.11,1.24h.04c.56-.86,1.37-1.41,2.27-1.41.35,0,.6.04.85.14l-.25,1.01c-.28-.07-.46-.11-.77-.11-.67,0-1.48.42-2.02,1.57v4.37h-1.35v-6.81Z"/>
    <path class="cls-3" d="M221.79,428.81c0-1.48,1.5-2.23,4.9-2.54,0-.88-.34-1.72-1.65-1.72-.92,0-1.75.37-2.38.73l-.53-.79c.73-.41,1.85-.89,3.13-.89,1.95,0,2.77,1.1,2.77,2.8v4.18h-1.12l-.11-.81h-.04c-.76.54-1.65.98-2.64.98-1.34,0-2.34-.71-2.34-1.94ZM226.69,428.91v-1.89c-2.67.27-3.58.83-3.58,1.7,0,.77.62,1.09,1.4,1.09s1.41-.32,2.18-.9Z"/>
    <path class="cls-3" d="M229.96,427.18c0-2.27,1.8-3.58,3.84-3.58,1.05,0,1.77.37,2.33.8l-.69.76c-.46-.36-.96-.6-1.58-.6-1.45,0-2.5,1.06-2.5,2.62s1,2.6,2.47,2.6c.73,0,1.38-.3,1.87-.68l.59.77c-.72.54-1.62.87-2.58.87-2.12,0-3.74-1.31-3.74-3.56Z"/>
    <path class="cls-3" d="M238.04,420.6h1.33v6.76h.04l3.41-3.59h1.5l-2.67,2.74,3.02,4.07h-1.48l-2.33-3.27-1.5,1.49v1.79h-1.33v-9.98Z"/>
    <path class="cls-3" d="M249.45,423.77h1.12l.11,1.24h.04c.56-.86,1.37-1.41,2.27-1.41.35,0,.6.04.85.14l-.25,1.01c-.28-.07-.46-.11-.77-.11-.67,0-1.48.42-2.02,1.57v4.37h-1.35v-6.81Z"/>
    <path class="cls-3" d="M254.55,427.18c0-2.22,1.75-3.58,3.59-3.58,2.04,0,3.18,1.25,3.18,3.2,0,.24-.02.49-.06.65h-5.37c.1,1.44,1.13,2.38,2.65,2.38.77,0,1.39-.21,1.99-.54l.48.76c-.7.39-1.55.71-2.64.71-2.13,0-3.82-1.33-3.82-3.56ZM260.13,426.62c0-1.36-.72-2.11-1.97-2.11-1.12,0-2.12.77-2.29,2.11h4.26Z"/>
    <path class="cls-3" d="M262.69,427.18c0-2.27,1.8-3.58,3.84-3.58,1.05,0,1.77.37,2.33.8l-.69.76c-.46-.36-.96-.6-1.58-.6-1.45,0-2.5,1.06-2.5,2.62s1,2.6,2.47,2.6c.73,0,1.38-.3,1.87-.68l.59.77c-.72.54-1.62.87-2.58.87-2.12,0-3.74-1.31-3.74-3.56Z"/>
    <path class="cls-3" d="M270.18,427.18c0-2.27,1.74-3.58,3.7-3.58s3.7,1.31,3.7,3.58-1.74,3.56-3.7,3.56-3.7-1.31-3.7-3.56ZM276.18,427.18c0-1.56-.93-2.62-2.3-2.62s-2.3,1.06-2.3,2.62.93,2.6,2.3,2.6,2.3-1.04,2.3-2.6Z"/>
    <path class="cls-3" d="M279.67,423.77h1.12l.11,1.24h.04c.56-.86,1.37-1.41,2.27-1.41.35,0,.6.04.85.14l-.25,1.01c-.28-.07-.46-.11-.77-.11-.67,0-1.48.42-2.02,1.57v4.37h-1.35v-6.81Z"/>
    <path class="cls-3" d="M284.79,427.18c0-2.21,1.63-3.58,3.45-3.58.93,0,1.54.3,2.24.79l-.06-1.17v-2.62h1.35v9.98h-1.12l-.11-.8h-.04c-.62.53-1.47.97-2.42.97-1.99,0-3.29-1.29-3.29-3.56ZM290.43,428.84v-3.57c-.68-.52-1.29-.71-1.95-.71-1.28,0-2.29,1.05-2.29,2.6,0,1.63.79,2.6,2.19,2.6.74,0,1.38-.31,2.05-.93Z"/>
    <path class="cls-3" d="M297.16,427.18c0-2.27,1.74-3.58,3.7-3.58s3.7,1.31,3.7,3.58-1.74,3.56-3.7,3.56-3.7-1.31-3.7-3.56ZM303.16,427.18c0-1.56-.93-2.62-2.3-2.62s-2.3,1.06-2.3,2.62.93,2.6,2.3,2.6,2.3-1.04,2.3-2.6Z"/>
    <path class="cls-3" d="M305.79,423.83l1.14-.07h2.98v.94h-4.12v-.87ZM306.87,422.69c0-1.38.74-2.26,2.34-2.26.49,0,.96.1,1.33.23l-.29.88c-.3-.12-.62-.18-.9-.18-.75,0-1.12.45-1.12,1.33v7.88h-1.35v-7.88Z"/>
    <path class="cls-3" d="M3.75,442.18c0-2.27,1.74-3.58,3.7-3.58s3.7,1.31,3.7,3.58-1.74,3.56-3.7,3.56-3.7-1.31-3.7-3.56ZM9.75,442.18c0-1.56-.93-2.62-2.3-2.62s-2.3,1.06-2.3,2.62.93,2.6,2.3,2.6,2.3-1.04,2.3-2.6Z"/>
    <path class="cls-3" d="M13.24,438.77h1.12l.11.79h.04c.72-.51,1.62-.95,2.54-.95,2.06,0,3.16,1.37,3.16,3.47,0,2.32-1.63,3.68-3.46,3.68-.73,0-1.48-.29-2.21-.79l.04,1.19v2.31h-1.35v-9.68ZM18.83,442.08c0-1.5-.6-2.51-2.1-2.51-.68,0-1.36.32-2.13.93v3.57c.72.52,1.42.71,1.94.71,1.32,0,2.29-1.01,2.29-2.7Z"/>
    <path class="cls-3" d="M22.59,443.47v-3.76h-1.19v-.87l1.25-.07.16-1.91h1.13v1.91h2.16v.94h-2.16v3.79c0,.83.31,1.31,1.23,1.31.28,0,.65-.09.91-.18l.26.87c-.45.13-.98.25-1.48.25-1.7,0-2.27-.92-2.27-2.27Z"/>
    <path class="cls-3" d="M27.65,436.62c0-.45.41-.74.93-.74s.93.29.93.74-.41.74-.93.74-.93-.31-.93-.74ZM27.9,438.77h1.35v6.81h-1.35v-6.81Z"/>
    <path class="cls-3" d="M31.94,438.77h1.12l.11.99h.04c.7-.64,1.53-1.16,2.48-1.16,1.22,0,1.87.5,2.2,1.3.83-.77,1.66-1.3,2.63-1.3,1.64,0,2.43.93,2.43,2.66v4.31h-1.35v-4.17c0-1.27-.47-1.81-1.49-1.81-.62,0-1.26.34-2,1.05v4.93h-1.35v-4.17c0-1.27-.47-1.81-1.48-1.81-.6,0-1.26.34-2,1.05v4.93h-1.35v-6.81Z"/>
    <path class="cls-3" d="M45.3,436.62c0-.45.41-.74.93-.74s.93.29.93.74-.41.74-.93.74-.93-.31-.93-.74ZM45.54,438.77h1.35v6.81h-1.35v-6.81Z"/>
    <path class="cls-3" d="M48.75,444.96l4.2-5.25h-3.73v-.94h5.44v.62l-4.2,5.25h4.34v.94h-6.05v-.62Z"/>
    <path class="cls-3" d="M56.31,436.62c0-.45.41-.74.93-.74s.93.29.93.74-.41.74-.93.74-.93-.31-.93-.74ZM56.56,438.77h1.35v6.81h-1.35v-6.81Z"/>
    <path class="cls-3" d="M60.6,438.77h1.12l.11.98h.04c.76-.64,1.58-1.15,2.68-1.15,1.68,0,2.44.93,2.44,2.66v4.31h-1.35v-4.17c0-1.27-.45-1.81-1.51-1.81-.82,0-1.38.36-2.18,1.05v4.93h-1.35v-6.81Z"/>
    <path class="cls-3" d="M68.97,446.88c0-.58.44-1.13,1.17-1.54v-.06c-.41-.22-.71-.58-.71-1.12,0-.57.47-1.02.88-1.26v-.06c-.53-.35-1.03-1.02-1.03-1.83,0-1.49,1.38-2.43,2.99-2.43.44,0,.84.07,1.13.17h2.78v.89h-1.64c.38.31.65.82.65,1.4,0,1.46-1.29,2.36-2.92,2.36-.39,0-.83-.08-1.19-.23-.29.21-.51.43-.51.8,0,.43.33.74,1.4.74h1.55c1.85,0,2.79.5,2.79,1.63,0,1.26-1.57,2.35-4.03,2.35-1.96,0-3.3-.65-3.3-1.83ZM74.98,446.53c0-.63-.56-.84-1.61-.84h-1.38c-.3,0-.68-.03-1.04-.1-.57.35-.81.75-.81,1.14,0,.73.86,1.19,2.31,1.19,1.52,0,2.52-.68,2.52-1.39ZM73.96,441.02c0-.99-.76-1.59-1.7-1.59s-1.7.59-1.7,1.59.78,1.62,1.7,1.62,1.7-.63,1.7-1.62Z"/>
    <path class="cls-3" d="M81.13,438.77h1.12l.11.79h.04c.72-.51,1.62-.95,2.54-.95,2.06,0,3.16,1.37,3.16,3.47,0,2.32-1.63,3.68-3.46,3.68-.73,0-1.48-.29-2.21-.79l.04,1.19v2.31h-1.35v-9.68ZM86.72,442.08c0-1.5-.6-2.51-2.1-2.51-.68,0-1.36.32-2.13.93v3.57c.72.52,1.42.71,1.94.71,1.32,0,2.29-1.01,2.29-2.7Z"/>
    <path class="cls-3" d="M89.65,442.18c0-2.22,1.75-3.58,3.59-3.58,2.04,0,3.19,1.25,3.19,3.2,0,.24-.02.49-.06.65h-5.37c.1,1.44,1.13,2.38,2.65,2.38.77,0,1.4-.21,1.99-.54l.48.76c-.7.39-1.55.71-2.64.71-2.13,0-3.82-1.33-3.82-3.56ZM95.22,441.62c0-1.36-.72-2.11-1.97-2.11-1.12,0-2.12.77-2.29,2.11h4.26Z"/>
    <path class="cls-3" d="M98.38,438.77h1.12l.11,1.24h.04c.56-.86,1.37-1.41,2.27-1.41.35,0,.6.04.85.14l-.25,1.01c-.27-.07-.45-.11-.77-.11-.67,0-1.48.42-2.02,1.57v4.37h-1.35v-6.81Z"/>
    <path class="cls-3" d="M103.21,438.83l1.14-.07h2.98v.94h-4.12v-.87ZM104.3,437.69c0-1.38.74-2.26,2.34-2.26.49,0,.96.1,1.33.23l-.29.88c-.3-.12-.62-.18-.9-.18-.75,0-1.12.45-1.12,1.33v7.88h-1.35v-7.88Z"/>
    <path class="cls-3" d="M108.27,442.18c0-2.27,1.74-3.58,3.7-3.58s3.7,1.31,3.7,3.58-1.74,3.56-3.7,3.56-3.7-1.31-3.7-3.56ZM114.28,442.18c0-1.56-.93-2.62-2.3-2.62s-2.3,1.06-2.3,2.62.93,2.6,2.3,2.6,2.3-1.04,2.3-2.6Z"/>
    <path class="cls-3" d="M117.76,438.77h1.12l.11,1.24h.04c.56-.86,1.37-1.41,2.27-1.41.35,0,.6.04.85.14l-.25,1.01c-.27-.07-.45-.11-.77-.11-.67,0-1.48.42-2.02,1.57v4.37h-1.35v-6.81Z"/>
    <path class="cls-3" d="M123.46,438.77h1.12l.11.99h.04c.7-.64,1.53-1.16,2.48-1.16,1.22,0,1.87.5,2.2,1.3.83-.77,1.66-1.3,2.63-1.3,1.64,0,2.43.93,2.43,2.66v4.31h-1.35v-4.17c0-1.27-.47-1.81-1.49-1.81-.62,0-1.26.34-2,1.05v4.93h-1.35v-4.17c0-1.27-.47-1.81-1.48-1.81-.6,0-1.26.34-2,1.05v4.93h-1.35v-6.81Z"/>
    <path class="cls-3" d="M136.57,443.81c0-1.48,1.5-2.23,4.9-2.54,0-.88-.34-1.72-1.65-1.72-.92,0-1.75.37-2.38.73l-.53-.79c.73-.41,1.85-.89,3.13-.89,1.95,0,2.77,1.1,2.77,2.8v4.18h-1.12l-.11-.81h-.04c-.76.54-1.65.98-2.64.98-1.34,0-2.34-.71-2.34-1.94ZM141.47,443.91v-1.89c-2.67.27-3.58.83-3.58,1.7,0,.77.62,1.09,1.4,1.09s1.41-.32,2.18-.9Z"/>
    <path class="cls-3" d="M145.34,438.77h1.12l.11.98h.04c.76-.64,1.58-1.15,2.68-1.15,1.68,0,2.44.93,2.44,2.66v4.31h-1.35v-4.17c0-1.27-.45-1.81-1.51-1.81-.82,0-1.38.36-2.18,1.05v4.93h-1.35v-6.81Z"/>
    <path class="cls-3" d="M153.72,442.18c0-2.27,1.8-3.58,3.84-3.58,1.05,0,1.77.37,2.33.8l-.69.76c-.46-.36-.96-.6-1.58-.6-1.44,0-2.5,1.06-2.5,2.62s1,2.6,2.47,2.6c.73,0,1.38-.3,1.87-.68l.59.77c-.72.54-1.62.87-2.58.87-2.12,0-3.74-1.31-3.74-3.56Z"/>
    <path class="cls-3" d="M161.21,442.18c0-2.22,1.75-3.58,3.59-3.58,2.04,0,3.19,1.25,3.19,3.2,0,.24-.02.49-.06.65h-5.37c.1,1.44,1.13,2.38,2.65,2.38.77,0,1.4-.21,1.99-.54l.48.76c-.7.39-1.55.71-2.64.71-2.13,0-3.82-1.33-3.82-3.56ZM166.79,441.62c0-1.36-.72-2.11-1.97-2.11-1.12,0-2.12.77-2.29,2.11h4.26Z"/>
    <path class="cls-3" d="M172.73,443.81c0-1.48,1.5-2.23,4.9-2.54,0-.88-.34-1.72-1.65-1.72-.92,0-1.75.37-2.38.73l-.53-.79c.73-.41,1.85-.89,3.13-.89,1.95,0,2.77,1.1,2.77,2.8v4.18h-1.12l-.11-.81h-.04c-.76.54-1.65.98-2.64.98-1.34,0-2.34-.71-2.34-1.94ZM177.63,443.91v-1.89c-2.67.27-3.58.83-3.58,1.7,0,.77.62,1.09,1.4,1.09s1.41-.32,2.18-.9Z"/>
    <path class="cls-3" d="M181.5,438.77h1.12l.11.98h.04c.76-.64,1.58-1.15,2.68-1.15,1.68,0,2.44.93,2.44,2.66v4.31h-1.35v-4.17c0-1.27-.45-1.81-1.51-1.81-.82,0-1.38.36-2.18,1.05v4.93h-1.35v-6.81Z"/>
    <path class="cls-3" d="M189.91,442.18c0-2.21,1.63-3.58,3.45-3.58.93,0,1.54.3,2.24.79l-.06-1.17v-2.62h1.35v9.98h-1.12l-.11-.8h-.04c-.62.53-1.47.97-2.42.97-1.99,0-3.29-1.29-3.29-3.56ZM195.54,443.84v-3.57c-.68-.52-1.29-.71-1.95-.71-1.28,0-2.29,1.05-2.29,2.6,0,1.63.79,2.6,2.19,2.6.74,0,1.38-.31,2.05-.93Z"/>
    <path class="cls-3" d="M201.98,444.8l.67-.76c.69.48,1.4.81,2.36.81,1.05,0,1.57-.48,1.57-1.06,0-.7-.94-1.01-1.83-1.29-1.12-.35-2.38-.82-2.38-1.97s1.02-1.93,2.75-1.93c.99,0,1.86.35,2.48.77l-.65.74c-.55-.35-1.11-.61-1.82-.61-1,0-1.47.46-1.47.98,0,.65.87.89,1.77,1.18,1.15.37,2.43.77,2.43,2.07,0,1.1-1.03,2.02-2.91,2.02-1.13,0-2.23-.41-2.98-.95Z"/>
    <path class="cls-3" d="M209.15,442.18c0-2.27,1.8-3.58,3.84-3.58,1.05,0,1.77.37,2.33.8l-.69.76c-.46-.36-.96-.6-1.58-.6-1.45,0-2.5,1.06-2.5,2.62s1,2.6,2.47,2.6c.73,0,1.38-.3,1.87-.68l.59.77c-.72.54-1.62.87-2.58.87-2.12,0-3.74-1.31-3.74-3.56Z"/>
    <path class="cls-3" d="M216.74,443.81c0-1.48,1.5-2.23,4.9-2.54,0-.88-.34-1.72-1.65-1.72-.92,0-1.75.37-2.38.73l-.53-.79c.73-.41,1.85-.89,3.13-.89,1.95,0,2.77,1.1,2.77,2.8v4.18h-1.12l-.11-.81h-.04c-.76.54-1.65.98-2.64.98-1.34,0-2.34-.71-2.34-1.94ZM221.64,443.91v-1.89c-2.67.27-3.58.83-3.58,1.7,0,.77.62,1.09,1.4,1.09s1.41-.32,2.18-.9Z"/>
    <path class="cls-3" d="M225.5,444.21v-8.61h1.35v8.7c0,.35.18.49.38.49.08,0,.14,0,.29-.03l.18.88c-.19.06-.42.11-.78.11-1.01,0-1.43-.55-1.43-1.54Z"/>
    <path class="cls-3" d="M229.19,443.81c0-1.48,1.5-2.23,4.9-2.54,0-.88-.34-1.72-1.65-1.72-.92,0-1.75.37-2.38.73l-.53-.79c.73-.41,1.85-.89,3.13-.89,1.95,0,2.77,1.1,2.77,2.8v4.18h-1.12l-.11-.81h-.04c-.76.54-1.65.98-2.64.98-1.34,0-2.34-.71-2.34-1.94ZM234.1,443.91v-1.89c-2.67.27-3.58.83-3.58,1.7,0,.77.62,1.09,1.4,1.09s1.41-.32,2.18-.9Z"/>
    <path class="cls-3" d="M239.21,444.87h-.04l-.13.7h-1.08v-9.98h1.35v2.73l-.04,1.22c.73-.54,1.62-.95,2.51-.95,2.06,0,3.17,1.37,3.17,3.46,0,2.33-1.63,3.68-3.46,3.68-.74,0-1.57-.33-2.28-.87ZM243.55,442.08c0-1.5-.6-2.51-2.1-2.51-.68,0-1.38.32-2.13.93v3.57c.7.52,1.42.71,1.94.71,1.32,0,2.29-1.01,2.29-2.7Z"/>
    <path class="cls-3" d="M246.79,436.62c0-.45.41-.74.93-.74s.93.29.93.74-.41.74-.93.74-.93-.31-.93-.74ZM247.04,438.77h1.35v6.81h-1.35v-6.81Z"/>
    <path class="cls-3" d="M251.08,444.21v-8.61h1.35v8.7c0,.35.18.49.38.49.08,0,.14,0,.29-.03l.18.88c-.19.06-.42.11-.78.11-1.01,0-1.43-.55-1.43-1.54Z"/>
    <path class="cls-3" d="M255.01,436.62c0-.45.41-.74.93-.74s.93.29.93.74-.41.74-.93.74-.93-.31-.93-.74ZM255.26,438.77h1.35v6.81h-1.35v-6.81Z"/>
    <path class="cls-3" d="M259.53,443.47v-3.76h-1.19v-.87l1.25-.07.16-1.91h1.13v1.91h2.16v.94h-2.16v3.79c0,.83.31,1.31,1.23,1.31.28,0,.65-.09.91-.18l.26.87c-.45.13-.98.25-1.48.25-1.7,0-2.27-.92-2.27-2.27Z"/>
    <path class="cls-3" d="M264.04,448.37l.26-.92c.16.05.4.1.61.1.9,0,1.47-.62,1.8-1.46l.18-.5-3.2-6.82h1.39l1.63,3.77c.25.59.52,1.29.78,1.92h.07c.23-.62.45-1.32.67-1.92l1.42-3.77h1.32l-3.01,7.37c-.56,1.35-1.39,2.37-2.99,2.37-.37,0-.68-.06-.94-.14Z"/>
    <path class="cls-3" d="M272.23,444.87c0-.53.44-.89.98-.89s.98.36.98.89-.44.87-.98.87-.98-.36-.98-.87Z"/>
  </g>
  <g class="cls-12">
    <g class="cls-12">
      <text class="cls-9" transform="translate(47.51 181.46) scale(.99) skewX(-8.49)"><tspan x="0" y="0">y</tspan></text>
    </g>
    <g class="cls-12">
      <text class="cls-10" transform="translate(54.2 181.46) scale(.99) skewX(-8.49)"><tspan x="0" y="0">our in-house</tspan></text>
    </g>
    <g class="cls-12">
      <text class="cls-8" transform="translate(147.99 183.27) scale(.99) skewX(-8.49)"><tspan x="0" y="0">&lt;</tspan></text>
    </g>
    <g class="cls-12">
      <text class="cls-10" transform="translate(160.6 181.46) scale(.99) skewX(-8.49)"><tspan x="0" y="0">oding</tspan></text>
    </g>
    <g class="cls-12">
      <path class="cls-2" d="M207.2,172.52l-4.25,15.07h-1.37l4.21-15.07h1.41Z"/>
      <path class="cls-2" d="M216.7,178.52l-9.89,4.12.22-1.45,7.8-3.17-6.84-3.17.22-1.45,8.66,4.12-.14.99-.02-.02Z"/>
    </g>
    <g class="cls-12">
      <text class="cls-10" transform="translate(217.68 181.46) scale(.99) skewX(-8.49)"><tspan x="0" y="0">artner</tspan></text>
    </g>
  </g>
  <g>
    <path class="cls-4" d="M35.69,186.5c.25-.18,23.42-53.58,23.42-53.58,1.05-2.64,1.32-4.03,1.37-5.44l5.77.09c-.25.18-.72.74-1.39,1.65-.65.9-1.36,2.28-2.1,4.14,0,0-21.47,52.49-21.51,53.23"/>
    <path class="cls-5" d="M86.26,150.6l-31.91,8.72,3.31-7.02,21.83-6.24-16.57-6.71,2.8-6.93,21.2,8.32-.67,9.88h.02l-.02-.02Z"/>
    <path class="cls-5" d="M45.73,159.31l2.82-7.27-19.12-6.73,19.16-6.39,2.82-7.27-29.94,8.97-.61,9.26"/>
  </g>
  <text class="cls-11" transform="translate(189.5 594.43)"><tspan x="0" y="0">Copyright:</tspan><tspan class="cls-13" x="46.71" y="0"> </tspan><tspan x="51.13" y="0"></tspan><tspan class="cls-13" x="58.26" y="0"> </tspan><tspan x="62.69" y="0">2024</tspan><tspan class="cls-13" x="83.66" y="0"> </tspan><tspan x="88.09" y="0">APT.</tspan><tspan class="cls-7" x="109.04" y="0"> </tspan><tspan x="113.47" y="0">All</tspan><tspan class="cls-13" x="125.26" y="0"> </tspan><tspan x="129.69" y="0">rights</tspan><tspan class="cls-13" x="154.92" y="0"> </tspan><tspan x="159.35" y="0">reserved</tspan></text>
</svg>