<?xml version="1.0" encoding="UTF-8"?>
<svg id="Layer_1" data-name="Layer 1" xmlns="http://www.w3.org/2000/svg" viewBox="0 0 400 600">
  <defs>
    <style>
      .cls-1 {
        fill: #25265e;
        stroke-width: 0px;
      }

      .cls-2 {
        letter-spacing: .14em;
      }

      .cls-3 {
        font-size: 59.11px;
        letter-spacing: .06em;
      }

      .cls-4 {
        fill: #75b161;
        font-family: MSReferenceSansSerif, 'MS Reference Sans Serif';
      }

      .cls-5 {
        fill: #56ab46;
        font-family: TrebuchetMS, 'Trebuchet MS';
        font-size: 10px;
      }

      .cls-6 {
        font-size: 45px;
        letter-spacing: .06em;
      }

      .cls-7 {
        letter-spacing: .14em;
      }
    </style>
  </defs>
  <polygon class="cls-1" points="399.5 601.06 0 602.06 0 0 399.5 -1 399.5 601.06"/>
  <text class="cls-4" transform="translate(54.44 300.53) scale(.99 1)"><tspan class="cls-3"><tspan x="0" y="0">External </tspan></tspan><tspan class="cls-6"><tspan x="47.44" y="54">Projects</tspan></tspan></text>
  <text class="cls-5" transform="translate(187.45 593.85)"><tspan x="0" y="0">Copyright:</tspan><tspan class="cls-7" x="46.71" y="0"> </tspan><tspan x="51.13" y="0">©</tspan><tspan class="cls-7" x="58.26" y="0"> </tspan><tspan x="62.69" y="0">2024</tspan><tspan class="cls-7" x="83.66" y="0"> </tspan><tspan x="88.09" y="0">APT.</tspan><tspan class="cls-2" x="109.04" y="0"> </tspan><tspan x="113.47" y="0">All</tspan><tspan class="cls-7" x="125.26" y="0"> </tspan><tspan x="129.69" y="0">rights</tspan><tspan class="cls-7" x="154.92" y="0"> </tspan><tspan x="159.35" y="0">reserved</tspan></text>
  <text class="cls-5" transform="translate(187.45 593.85)"><tspan x="0" y="0">Copyright:</tspan><tspan class="cls-7" x="46.71" y="0"> </tspan><tspan x="51.13" y="0">©</tspan><tspan class="cls-7" x="58.26" y="0"> </tspan><tspan x="62.69" y="0">2024</tspan><tspan class="cls-7" x="83.66" y="0"> </tspan><tspan x="88.09" y="0">APT.</tspan><tspan class="cls-2" x="109.04" y="0"> </tspan><tspan x="113.47" y="0">All</tspan><tspan class="cls-7" x="125.26" y="0"> </tspan><tspan x="129.69" y="0">rights</tspan><tspan class="cls-7" x="154.92" y="0"> </tspan><tspan x="159.35" y="0">reserved</tspan></text>
</svg>