<?xml version="1.0" encoding="UTF-8"?>
<svg id="Layer_1" data-name="Layer 1" xmlns="http://www.w3.org/2000/svg" xmlns:xlink="http://www.w3.org/1999/xlink" viewBox="0 0 400 600">
  <defs>
    <style>
      .cls-1 {
        fill: #25265e;
      }

      .cls-1, .cls-2 {
        stroke-width: 0px;
      }

      .cls-3 {
        letter-spacing: .14em;
      }

      .cls-4 {
        fill: #231f20;
        font-family: TrebuchetMS, 'Trebuchet MS';
        font-size: 10px;
      }

      .cls-2 {
        fill: #e8c92f;
      }

      .cls-5 {
        letter-spacing: .14em;
      }
    </style>
  </defs>
  <polygon class="cls-2" points="398.5 601.06 0 602.06 0 0 398.5 -1 398.5 601.06"/>
  <path class="cls-1" d="M187.23,208.72h-25.54v147.57l-19.86-3.78v-19.86l-23.65-3.78v44.46l69.05,17.97v-182.56ZM206.38,208.72h70.7l-4.73,28.28h-38.98v46.41h38.98l-4.73,93.68-61.25,14.19v-29.32l41.38-14.19,2.39-38.78-43.77,6.34v-106.61Z"/>
  <path class="cls-1" d="M206.48,492.63c-9.05,0-18.11-2.23-26.28-6.72l-128.7-70.72c-17.04-9.36-27.88-27.25-28.29-46.69l-3.11-146.81c-.41-19.44,9.66-37.77,26.29-47.84l125.59-76.1c16.62-10.07,37.54-10.52,54.58-1.15l128.7,70.72c17.04,9.36,27.88,27.25,28.29,46.69l3.11,146.81c.41,19.43-9.66,37.77-26.29,47.84l-125.59,76.1c-8.65,5.24-18.47,7.88-28.3,7.88ZM200.28,113.86c-5.51,0-11.01,1.48-15.86,4.41l-125.59,76.1c-9.32,5.64-14.96,15.92-14.73,26.81h0s3.11,146.81,3.11,146.81c.23,10.89,6.3,20.91,15.85,26.16l128.7,70.72c9.55,5.25,21.26,5,30.58-.65l125.59-76.1c9.32-5.65,14.96-15.92,14.73-26.81l-3.11-146.81c-.23-10.89-6.3-20.91-15.85-26.16l-128.7-70.72c-4.58-2.52-9.65-3.77-14.73-3.77Z"/>
  <image width="128" height="114" transform="translate(246.64 59.31) scale(.37)" xlink:href="../../128px-React-icon.svg.png"/>
  <image width="128" height="111" transform="translate(67.27 464.07) scale(.59)" xlink:href="../../128px-Babylon_logo_v4.svg.png"/>
  <image width="128" height="128" transform="translate(27.51 420.62) scale(.5)" xlink:href="../../128px-Three.js_Icon.svg.png"/>
  <image width="128" height="128" transform="translate(332.31 435.62) scale(.32)" xlink:href="../../128px-Typescript_logo_2020.svg.png"/>
  <image width="256" height="157" transform="translate(310.67 80.43) rotate(26.75) scale(.38)" xlink:href="../../256px-Node.js_logo.svg.png"/>
  <image width="128" height="128" transform="translate(274.56 468.64) scale(.41)" xlink:href="../../anglular.png"/>
  <image width="128" height="83" transform="translate(12.1 104.12) rotate(-27.92) scale(.86)" xlink:href="../../html5.png"/>
  <text class="cls-4" transform="translate(189.5 594.43)"><tspan x="0" y="0">Copyright:</tspan><tspan class="cls-5" x="46.71" y="0"> </tspan><tspan x="51.13" y="0">©</tspan><tspan class="cls-5" x="58.26" y="0"> </tspan><tspan x="62.69" y="0">2024</tspan><tspan class="cls-5" x="83.66" y="0"> </tspan><tspan x="88.09" y="0">APT.</tspan><tspan class="cls-3" x="109.04" y="0"> </tspan><tspan x="113.47" y="0">All</tspan><tspan class="cls-5" x="125.26" y="0"> </tspan><tspan x="129.69" y="0">rights</tspan><tspan class="cls-5" x="154.92" y="0"> </tspan><tspan x="159.35" y="0">reserved</tspan></text>
</svg>