<?xml version="1.0" encoding="UTF-8"?>
<svg id="Layer_1" data-name="Layer 1" xmlns="http://www.w3.org/2000/svg" xmlns:xlink="http://www.w3.org/1999/xlink" viewBox="0 0 398.25 603.03">
  <defs>
    <style>
      .cls-1 {
        fill: #25265e;
      }

      .cls-1, .cls-2 {
        stroke-width: 0px;
      }

      .cls-3 {
        letter-spacing: .14em;
      }

      .cls-4 {
        letter-spacing: .01em;
      }

      .cls-5 {
        letter-spacing: -.04em;
      }

      .cls-2 {
        fill: #f6c115;
      }

      .cls-6 {
        letter-spacing: 0em;
      }

      .cls-7 {
        fill: #0dad5e;
        font-family: TrebuchetMS, 'Trebuchet MS';
        font-size: 10px;
      }

      .cls-8 {
        letter-spacing: 0em;
      }

      .cls-9 {
        letter-spacing: .05em;
      }

      .cls-10 {
        letter-spacing: .06em;
      }

      .cls-11 {
        letter-spacing: -.02em;
      }

      .cls-12 {
        letter-spacing: .02em;
      }

      .cls-13 {
        letter-spacing: 0em;
      }

      .cls-14 {
        font-family: MyriadPro-Regular, 'Myriad Pro';
        font-size: 12px;
        opacity: 0;
      }

      .cls-14, .cls-15 {
        fill: #231f20;
      }

      .cls-16 {
        letter-spacing: .01em;
      }

      .cls-17 {
        letter-spacing: 0em;
      }

      .cls-18 {
        letter-spacing: 0em;
      }

      .cls-19 {
        letter-spacing: .14em;
      }

      .cls-15 {
        font-size: 14px;
      }

      .cls-15, .cls-20 {
        font-family: Verdana, Verdana;
      }

      .cls-20 {
        fill: #75b161;
        font-size: 37.03px;
      }
    </style>
  </defs>
  <polygon class="cls-1" points="399.5 602.06 0 603.06 0 1 399.5 0 399.5 602.06"/>
  <text class="cls-7" transform="translate(189.49 595.43)"><tspan x="0" y="0">Copyright:</tspan><tspan class="cls-19" x="46.71" y="0"> </tspan><tspan x="51.13" y="0">©</tspan><tspan class="cls-19" x="58.26" y="0"> </tspan><tspan x="62.69" y="0">2024</tspan><tspan class="cls-19" x="83.66" y="0"> </tspan><tspan x="88.09" y="0">APT.</tspan><tspan class="cls-3" x="109.04" y="0"> </tspan><tspan x="113.47" y="0">All</tspan><tspan class="cls-19" x="125.26" y="0"> </tspan><tspan x="129.69" y="0">rights</tspan><tspan class="cls-19" x="154.92" y="0"> </tspan><tspan x="159.35" y="0">reserved</tspan></text>
  <text class="cls-20" transform="translate(89.94 300.85) scale(.96 1)"><tspan class="cls-10" x="0" y="0">Thank </tspan><tspan class="cls-9" x="140.17" y="0">y</tspan><tspan class="cls-10" x="163.98" y="0">ou!</tspan></text>
  <a xlink:href="https://www.agencypt.com/index.php#contact">
    <rect class="cls-2" x="110.66" y="326.03" width="178.19" height="44.55" rx="15.86" ry="15.86"/>
  </a>
  <a xlink:href="https://www.agencypt.com/index.php#contact">
    <text class="cls-15" transform="translate(141.18 354.79)"><tspan class="cls-11" x="0" y="0">P</tspan><tspan x="8.1" y="0">artner with Us </tspan></text>
  </a>
  <a xlink:href="https://www.agencypt.com/index.php#contact">
    <text class="cls-14" transform="translate(127.25 343.55)"><tspan class="cls-6" x="0" y="0">h</tspan><tspan x="6.61" y="0">ttps://</tspan><tspan class="cls-4" x="36.85" y="0">ww</tspan><tspan class="cls-5" x="54.8" y="0">w</tspan><tspan x="63.17" y="0">.agen</tspan><tspan class="cls-12" x="90.81" y="0">c</tspan><tspan x="96.41" y="0">yp</tspan><tspan class="cls-8" x="108.89" y="0">t</tspan><tspan x="112.82" y="0">.</tspan><tspan class="cls-13" x="115.31" y="0">c</tspan><tspan x="120.61" y="0">om/i</tspan><tspan x="0" y="14.4">nd</tspan><tspan class="cls-17" x="13.43" y="14.4">e</tspan><tspan class="cls-18" x="19.4" y="14.4">x.php#</tspan><tspan class="cls-13" x="53.72" y="14.4">c</tspan><tspan x="59.03" y="14.4">o</tspan><tspan class="cls-6" x="65.62" y="14.4">n</tspan><tspan class="cls-18" x="72.23" y="14.4">ta</tspan><tspan class="cls-16" x="81.98" y="14.4">c</tspan><tspan x="87.51" y="14.4">t</tspan></text>
  </a>
</svg>