<?xml version="1.0" encoding="UTF-8"?>
<svg id="Layer_1" data-name="Layer 1" xmlns="http://www.w3.org/2000/svg" viewBox="0 0 109.23 65.35">
  <defs>
    <style>
      .cls-1 {
        font-family: BradleyHandITC, 'Bradley Hand ITC';
        font-size: 7px;
        letter-spacing: .14em;
      }

      .cls-1, .cls-2 {
        fill: #231f20;
      }

      .cls-3 {
        fill: #be1e2d;
      }

      .cls-4 {
        fill: #2e3192;
      }

      .cls-5, .cls-6, .cls-7 {
        font-family: Bauhaus93, 'Bauhaus 93';
      }

      .cls-5, .cls-8 {
        letter-spacing: .06em;
      }

      .cls-5, .cls-8, .cls-7 {
        font-size: 7.28px;
      }

      .cls-6 {
        letter-spacing: .06em;
      }

      .cls-6, .cls-9 {
        font-size: 9.19px;
      }

      .cls-9 {
        font-family: Bahnschrift-Bold, Bahnschrift;
        font-variation-settings: 'wght' 700, 'wdth' 100;
        letter-spacing: .06em;
      }

      .cls-9, .cls-8 {
        font-weight: 700;
      }

      .cls-8 {
        font-family: AgencyFB-Bold, 'Agency FB';
      }

      .cls-7 {
        letter-spacing: .06em;
      }
    </style>
  </defs>
  <g>
    <path class="cls-2" d="m46.87,55.44c.24-.3.59-1.12,1.04-2.46.45-1.34.82-3.32,1.09-5.94l3.91-38.58c.39-3.73.4-6.55.05-8.47h6.25c-.24.3-.59,1.12-1.04,2.46-.46,1.34-.82,3.32-1.09,5.94l-3.91,38.58c-.19,1.92-.29,3.56-.3,4.92-.02,1.36.07,2.55.25,3.56h-6.24Z"/>
    <path class="cls-4" d="m73.65,13.28l-14.43,5.27v-4.14l9.81-3.77-9.81-3.69V2.82l14.43,5.19v5.27Z"/>
    <text class="cls-2" transform="translate(54.5 40.45) scale(.99) skewX(-8.49)"><tspan class="cls-5"><tspan x="0" y="0">your in-house</tspan></tspan><tspan class="cls-6" x="0" y="11.03">&lt;</tspan><tspan class="cls-8" x="5.13" y="11.03">oding </tspan><tspan class="cls-9" x="22.46" y="11.03">/&gt;</tspan><tspan class="cls-7" x="30.94" y="11.03">artner</tspan></text>
    <polygon class="cls-3" points="39.01 49.06 43.52 55.44 41.55 46.55 39.01 49.06"/>
    <path class="cls-3" d="m37.57,48.3c-3.05,0-5.52-2.47-5.52-5.52,0,0,0,0,0-.01l-.08-.03.08-.03c.04-3.02,2.49-5.45,5.52-5.45,1.63,0,3.09.71,4.1,1.83l.11-.04v-4.14l-14.43,5.19v5.27l14.43,5.27v-4.14l-.11-.04c-1.01,1.12-2.47,1.83-4.1,1.83Z"/>
    <text class="cls-1" transform="translate(.14 62.56) scale(1.02 1)"><tspan x="0" y="0">Agency Programming Team</tspan></text>
  </g>
  <text/>
</svg>